<svg xmlns="http://www.w3.org/2000/svg" width="430" height="430" viewBox="0 0 430 430" version="1.1"><path d="M 140.242 50.109 C 137.770 51.333, 135.761 53.116, 135.454 54.359 C 135.162 55.536, 135.054 62.532, 135.212 69.904 L 135.500 83.307 139.422 85.341 C 143.881 87.653, 154.081 88.125, 157.672 86.186 C 162.797 83.418, 163 82.721, 163 67.881 C 163 54.236, 162.940 53.849, 160.486 51.574 C 156.046 47.459, 146.928 46.800, 140.242 50.109 M 267.571 49.571 C 266.336 50.807, 266 53.464, 266 62.006 C 266 73.422, 266.978 78, 269.416 78 C 271.604 78, 272.478 76.009, 272.490 71 L 272.500 66.500 280.298 66.207 C 286.169 65.987, 288.240 65.537, 288.681 64.390 C 289.715 61.695, 287.306 60.711, 280.112 60.893 C 274.151 61.043, 272.957 60.787, 272.093 59.173 C 271.367 57.818, 271.447 56.771, 272.371 55.508 C 273.472 54.002, 275.111 53.766, 283.417 53.921 C 294.436 54.126, 297.279 53.071, 294.370 49.857 C 292.915 48.248, 291.117 48, 280.916 48 C 271.547 48, 268.822 48.321, 267.571 49.571 M 304.406 49.386 C 304.113 50.148, 304.015 52.689, 304.187 55.034 C 304.622 60.963, 309.725 65.147, 317.286 65.774 C 321.900 66.156, 322.997 65.874, 325.691 63.607 C 327.395 62.173, 328.949 61, 329.144 61 C 330.061 60.999, 329.417 109.005, 328.500 109.062 C 318.879 109.663, 297.979 109.279, 297.899 108.500 C 297.843 107.950, 297.877 106.048, 297.973 104.273 C 298.219 99.759, 297.257 97.300, 295.013 96.714 C 290.247 95.467, 288.228 101.726, 290.811 109.743 L 292.500 114.986 313.731 114.993 C 334.949 115, 334.962 114.999, 335.419 112.750 C 336.280 108.508, 337.155 101.500, 337.010 100 C 336.119 90.777, 336.073 63.767, 336.943 60.313 C 337.633 57.571, 337.685 55.377, 337.086 54.257 C 336.569 53.291, 335.898 51.702, 335.596 50.727 C 334.384 46.824, 331.838 47.539, 326.490 53.285 C 321.453 58.697, 317.537 60.804, 314.606 59.679 C 313.837 59.384, 312.463 56.900, 311.553 54.159 C 310.049 49.632, 308.548 48, 305.887 48 C 305.365 48, 304.698 48.624, 304.406 49.386 M 194.535 51.278 C 189.489 54.136, 185.347 60.951, 184.694 67.466 C 184.227 72.136, 184.415 72.649, 187.848 76.065 C 190.837 79.039, 192.713 79.925, 198.179 80.949 C 210.268 83.213, 214.375 81.297, 219.509 71 C 221.806 66.394, 221.719 66.452, 223.744 68.162 C 226.531 70.515, 233.561 72.333, 237.441 71.703 C 240.468 71.212, 241 71.408, 241 73.016 C 241 74.055, 241.532 76.074, 242.183 77.502 C 243.095 79.504, 243.093 80.854, 242.174 83.397 C 241.212 86.056, 241.263 87.495, 242.439 90.827 C 243.729 94.484, 243.722 95.135, 242.379 96.478 C 240.082 98.776, 236.243 99.389, 232.043 98.131 C 226.898 96.589, 207.760 96.640, 206.200 98.200 C 205.503 98.897, 205 102.237, 205 106.165 C 205 111.929, 205.299 113.090, 207.021 114.011 C 209.808 115.503, 211 114.470, 211 110.563 C 211 106.252, 213.206 104.528, 218.905 104.384 C 221.432 104.320, 227.271 103.848, 231.881 103.336 C 241.926 102.219, 243.346 102.982, 242.388 108.976 C 241.875 112.180, 242.112 112.989, 243.827 113.907 C 246.169 115.161, 246.743 114.586, 248.727 109 C 250.538 103.900, 250.495 65.656, 248.676 64.146 C 247.433 63.114, 237.352 64.046, 235.169 65.395 C 234.728 65.668, 232.598 65.272, 230.434 64.516 C 226.369 63.096, 226.404 63.193, 227.667 56.865 C 228.378 53.305, 226.451 50, 223.665 50 C 220.414 50, 219.017 51.833, 219.692 55.209 L 220.275 58.127 216.498 55.563 C 214.421 54.153, 212.221 52.990, 211.610 52.978 C 211 52.966, 209.375 52.076, 208 51 C 204.682 48.405, 199.417 48.513, 194.535 51.278 M 99 50.729 C 96.316 51.751, 96.031 53.314, 96.015 67.095 C 96.002 79.235, 96.205 80.876, 97.917 82.425 C 100.334 84.612, 103.676 83.138, 104.594 79.480 C 105.134 77.328, 104.715 66.422, 103.806 59 C 103.517 56.641, 103.798 56.483, 108.802 56.196 C 114.697 55.858, 116.737 53.743, 113.471 51.355 C 111.633 50.011, 101.983 49.593, 99 50.729 M 124.025 51.975 C 121.283 54.717, 120.538 58.513, 121.869 62.957 C 122.491 65.033, 123 69.910, 123 73.795 C 123 81.548, 121.875 83.618, 117.180 84.501 C 110.424 85.772, 101.514 88.124, 99.125 89.266 C 96.566 90.491, 96.493 90.789, 96.218 101.088 L 95.936 111.654 101.933 113.322 C 106.684 114.642, 108.456 114.749, 110.462 113.835 C 112.376 112.963, 113.938 112.964, 116.863 113.841 C 121.786 115.316, 135.298 115.209, 140.455 113.654 C 145.264 112.204, 149.016 106.929, 146.982 104.479 C 145.164 102.287, 139.928 102.561, 139.322 104.878 C 138.486 108.073, 134.366 109.279, 128.991 107.901 C 125.424 106.987, 123.512 106.975, 121.002 107.850 C 116.935 109.267, 108.521 109.349, 105.993 107.996 C 104.430 107.160, 104.149 105.950, 104.308 100.746 L 104.500 94.500 111.698 93.422 C 116.748 92.666, 120.124 91.493, 123.008 89.495 C 128.274 85.845, 129 84.378, 129 77.387 C 129 74.227, 129.532 70.170, 130.183 68.370 C 131.099 65.837, 131.093 64.499, 130.156 62.444 C 129.204 60.353, 129.215 59.049, 130.208 56.302 C 131.338 53.176, 131.270 52.670, 129.543 51.408 C 127.015 49.559, 126.375 49.625, 124.025 51.975 M 70.192 55.295 C 66.748 58.962, 67.660 66, 71.579 66 C 74.456 66, 76.187 54.206, 73.442 53.308 C 72.861 53.117, 71.398 54.012, 70.192 55.295 M 356 63.800 C 356 70.867, 356.415 75.015, 357.200 75.800 C 357.986 76.586, 362.140 77, 369.230 77 L 380.060 77 377.801 73.945 C 375.592 70.957, 375.407 70.904, 369.394 71.548 C 362.004 72.340, 361.603 71.920, 361.899 63.714 C 362.078 58.742, 361.743 57.355, 359.883 55.375 C 358.655 54.069, 357.280 53, 356.826 53 C 356.372 53, 356 57.860, 356 63.800 M 197.494 56.765 C 195.606 58.145, 191 64.863, 191 66.238 C 191 66.992, 192.490 69.236, 194.311 71.224 C 198.709 76.026, 203.280 76.918, 208.870 74.067 L 213 71.959 213 66.069 L 213 60.178 208.684 58.089 C 204.346 55.989, 199.364 55.400, 197.494 56.765 M 141.216 67.642 L 141.500 78.283 146 79.626 C 152.023 81.424, 155.651 81.352, 156.393 79.418 C 156.727 78.548, 157 73.148, 157 67.418 L 157 57 148.966 57 L 140.932 57 141.216 67.642 M 294.250 59.031 C 292.659 59.671, 292 60.765, 292 62.768 C 292 66.294, 293.630 68, 297 68 C 298.430 68, 300.140 67.460, 300.800 66.800 C 302.701 64.899, 302.258 60.208, 300.066 59.035 C 297.803 57.824, 297.254 57.824, 294.250 59.031 M 198.750 63.056 C 196.629 64.320, 196.472 67.317, 198.440 68.950 C 200.409 70.584, 205.058 69.883, 206.394 67.750 C 208.734 64.013, 203.026 60.508, 198.750 63.056 M 303.492 67.382 C 301.765 68.645, 301.717 69.114, 302.941 72.821 C 303.844 75.556, 304.020 78.282, 303.481 81.189 C 303.042 83.560, 302.642 89.325, 302.592 94 L 302.500 102.500 311.500 102.500 L 320.500 102.500 320.500 85.610 L 320.500 68.721 316 67.376 C 310.206 65.643, 305.867 65.646, 303.492 67.382 M 51.827 74.362 L 50.155 76.671 57.540 78.412 C 64.911 80.150, 70 83.011, 70 85.418 C 70 88.709, 66.469 90, 57.421 90.015 C 47.261 90.033, 44.302 91.102, 47.500 93.601 C 49.104 94.854, 51.023 95.036, 57.196 94.518 C 65.555 93.816, 69 94.807, 69 97.913 C 69 101.464, 66.479 102.328, 58.140 101.632 C 51.185 101.052, 50.134 101.194, 48.566 102.927 C 45.609 106.195, 47.485 107, 58.059 107 L 68 107 68 110.441 C 68 114.278, 69.095 115.422, 71.911 114.528 C 74.643 113.661, 75.304 108.181, 75.098 88.105 C 75.002 78.684, 74.326 77.949, 63.018 74.957 C 59.433 74.008, 55.825 72.967, 55 72.643 C 54.100 72.289, 52.831 72.977, 51.827 74.362 M 311.272 73.755 C 309.506 75.347, 309.387 76.467, 309.918 86.500 C 310.450 96.547, 310.669 97.500, 312.453 97.500 C 314.269 97.500, 314.427 96.641, 314.687 85.299 C 314.842 78.589, 314.572 72.853, 314.088 72.554 C 313.604 72.255, 312.337 72.796, 311.272 73.755 M 227.783 76.578 C 226.509 79.374, 227.309 81.531, 230.325 83.433 C 232.575 84.851, 237.386 82.218, 237.803 79.341 C 238.555 74.153, 229.967 71.784, 227.783 76.578 M 183 86.450 C 183 88.731, 183.396 88.921, 188.750 89.200 L 194.500 89.500 194.789 98.250 C 195.111 108.001, 195.674 107.352, 187.176 107.013 C 182.986 106.845, 182.862 106.928, 183.176 109.670 C 183.492 112.430, 183.667 112.507, 190.231 112.795 C 200.865 113.262, 201 113.089, 201 99.047 C 201 92.511, 200.727 86.452, 200.393 85.582 C 199.906 84.313, 198.124 84, 191.393 84 C 183.153 84, 183 84.045, 183 86.450 M 268.835 84.634 C 266.980 85.169, 265.690 87.690, 266.556 89.090 C 266.865 89.591, 268.937 90, 271.160 90 L 275.201 90 274.590 94.750 C 274.254 97.362, 273.712 102.717, 273.385 106.650 C 272.833 113.303, 272.938 113.845, 274.896 114.467 C 276.053 114.834, 277.941 114.836, 279.091 114.471 C 281.058 113.847, 281.171 113.174, 280.979 103.154 C 280.867 97.294, 280.826 91.938, 280.888 91.250 C 280.967 90.364, 283.315 90, 288.941 90 C 293.309 90, 297.119 89.616, 297.409 89.147 C 297.699 88.678, 297.313 87.441, 296.551 86.397 C 295.333 84.730, 293.671 84.479, 282.833 84.327 C 276.050 84.232, 269.751 84.370, 268.835 84.634 M 382 92.743 C 382 101.185, 381.860 101.760, 379.175 104.333 C 377.621 105.821, 374.896 107.456, 373.120 107.965 C 370.465 108.727, 369.546 108.546, 367.946 106.946 C 366.310 105.310, 366 103.584, 366 96.107 C 366 88.920, 365.697 87.098, 364.418 86.607 C 360.789 85.214, 360 85.908, 360 90.486 C 360 92.953, 359.486 96.894, 358.857 99.245 C 357.849 103.013, 357.969 104.019, 359.867 107.739 C 362.491 112.883, 366.296 115, 372.916 115 C 377.114 115, 378.514 114.488, 381.516 111.852 C 386.629 107.363, 388 104.104, 388 96.443 C 388 90.671, 388.219 89.870, 389.648 90.418 C 390.830 90.872, 390.585 90.126, 388.778 87.775 C 387.393 85.974, 385.302 84.356, 384.130 84.180 C 382.093 83.875, 382 84.247, 382 92.743 M 206 87.987 C 204.839 88.727, 204.750 89.345, 205.608 90.722 C 206.578 92.280, 208.619 92.534, 222.101 92.777 C 235.612 93.021, 237.638 92.848, 238.726 91.359 C 241.389 87.718, 238.724 86.999, 222.628 87.015 C 214.307 87.024, 206.825 87.461, 206 87.987 M 140.200 92.200 C 139.540 92.860, 139 94.570, 139 96 C 139 99.305, 140.695 101, 144 101 C 147.189 101, 149 99.323, 149 96.371 C 149 91.992, 143.171 89.229, 140.200 92.200 M 156.200 92.200 C 155.430 92.970, 155 96.916, 155 103.221 C 155 112.696, 155.087 113.083, 157.470 114.168 C 161.939 116.204, 163 114.075, 163 103.078 C 163 93.241, 162.258 91, 159 91 C 158.120 91, 156.860 91.540, 156.200 92.200 M 36.071 94.905 C 34.116 97.646, 33.629 99.596, 33.571 104.905 C 33.505 111.012, 33.667 111.524, 35.754 111.820 C 38.774 112.249, 39.134 110.898, 38.791 100.421 L 38.500 91.500 36.071 94.905 M 393.019 103.128 C 393.005 110.446, 393.357 113.051, 394.487 113.989 C 397.383 116.393, 399 114.436, 399 108.528 C 399 104.115, 398.396 102.032, 396.019 98.247 L 393.038 93.500 393.019 103.128 M 207.386 155.713 C 203.052 156.260, 198.967 160.830, 198.288 165.888 C 197.576 171.200, 199.023 171.138, 201.526 165.750 C 202.612 163.412, 204.625 160.944, 206 160.265 C 209.355 158.607, 221.270 158.668, 225.329 160.364 C 228.875 161.846, 234 167.291, 234 169.577 C 234 170.360, 234.675 171, 235.500 171 C 239.121 171, 235.370 159.798, 231.178 158.095 C 224.948 155.562, 215.818 154.649, 207.386 155.713 M 196.570 173.887 C 195.889 174.988, 198.438 177.229, 199.342 176.325 C 199.704 175.963, 200 175.067, 200 174.333 C 200 172.844, 197.422 172.508, 196.570 173.887 M 234.190 175.750 C 234.376 176.713, 235.415 177.500, 236.500 177.500 C 237.585 177.500, 238.624 176.713, 238.810 175.750 C 239.062 174.439, 238.482 174, 236.500 174 C 234.518 174, 233.938 174.439, 234.190 175.750 M 175.965 177.542 C 172.474 181.749, 177.552 207.400, 183.192 214.041 C 186.420 217.842, 192.215 221.132, 198.347 222.646 L 205 224.287 204.995 229.894 C 204.992 232.977, 204.703 239.822, 204.354 245.104 L 203.718 254.707 189.091 255.269 C 174.603 255.826, 169 257.041, 169 259.625 C 169 260.343, 169.792 261.353, 170.759 261.871 C 171.741 262.397, 189.300 262.942, 210.509 263.105 C 250.326 263.412, 251.708 263.282, 253.990 259.019 C 255.780 255.675, 252.374 255, 233.710 255 L 216.289 255 215.652 248.250 C 215.301 244.537, 215.011 237.832, 215.007 233.348 L 215 225.196 221.250 224.479 C 239.391 222.398, 250.786 214.192, 255.581 199.756 C 257.396 194.293, 257.829 179.429, 256.220 177.820 C 254.353 175.953, 249.725 181.317, 249.089 186.087 L 248.500 190.500 241.108 190.698 C 237.042 190.806, 233.161 191.108, 232.483 191.368 C 231.805 191.628, 230.943 193.891, 230.568 196.397 C 230.192 198.903, 229.467 201.211, 228.957 201.526 C 227.239 202.588, 206.312 202.238, 204.208 201.112 C 203.072 200.503, 201.261 197.642, 200.185 194.753 L 198.228 189.500 190.372 188.500 L 182.516 187.500 181.848 182.800 C 181.481 180.215, 180.888 177.628, 180.531 177.050 C 179.591 175.530, 177.443 175.761, 175.965 177.542 M 212.597 178.212 C 209.159 183.458, 214.896 188.548, 219.292 184.153 C 221.031 182.413, 221.231 181.557, 220.432 179.272 C 219.118 175.513, 214.752 174.923, 212.597 178.212 M 197.166 183.139 C 197.350 184.437, 197.950 185.387, 198.500 185.250 C 199.976 184.881, 199.716 181.739, 198.166 181.222 C 197.251 180.917, 196.937 181.520, 197.166 183.139 M 39.182 183.585 C 37.021 185.099, 37 185.403, 37 215.485 C 37 242.160, 37.197 246.055, 38.621 247.479 C 39.513 248.370, 40.976 248.960, 41.871 248.790 C 43.200 248.537, 43.592 246.698, 44 238.819 C 44.275 233.505, 44.775 228.884, 45.111 228.551 C 45.448 228.217, 46.910 228.395, 48.361 228.947 C 50.921 229.921, 51 230.199, 51 238.275 C 51 243.417, 51.459 247.059, 52.200 247.800 C 56.251 251.851, 59.456 244.911, 58.381 234.415 C 57.823 228.969, 57.269 227.562, 54.894 225.564 C 53.340 224.257, 50.222 222.875, 47.965 222.494 C 45.708 222.113, 43.622 221.179, 43.330 220.418 C 43.038 219.658, 43.509 216.954, 44.376 214.408 C 45.477 211.180, 45.658 209.229, 44.977 207.956 C 44.439 206.953, 44 201.207, 44 195.188 C 44 183.023, 43.095 180.844, 39.182 183.585 M 232.336 183.567 C 232.005 184.429, 232.247 185.647, 232.874 186.274 C 234.282 187.682, 237.616 184.806, 236.559 183.096 C 235.561 181.481, 233.028 181.764, 232.336 183.567 M 334.135 183.585 C 331.822 184.558, 330.269 184.679, 328.978 183.988 C 326.246 182.526, 310.115 182.816, 305.535 184.410 C 300.791 186.061, 300.163 187.300, 303.047 189.320 C 304.693 190.474, 305.873 190.592, 308.076 189.824 C 309.660 189.272, 313.778 189.071, 317.227 189.379 C 320.677 189.686, 327.311 190.064, 331.970 190.219 L 340.440 190.500 340.133 202.592 C 339.877 212.671, 340.095 214.952, 341.442 216.299 C 344.520 219.377, 345.721 217.368, 346.292 208.191 C 346.904 198.364, 346.747 186.373, 345.998 185.744 C 345.724 185.514, 343.687 184.621, 341.472 183.760 C 337.972 182.399, 337.011 182.376, 334.135 183.585 M 407.040 182.780 C 397.811 182.973, 393.337 183.444, 392.805 184.280 C 391.500 186.334, 391.915 192.684, 393.436 193.947 C 395.549 195.701, 399.034 193.581, 398.734 190.724 C 398.507 188.567, 398.783 188.500, 407.871 188.500 L 417.242 188.500 417.572 211.808 C 417.754 224.627, 418.186 236.011, 418.534 237.106 C 419.747 240.929, 417.479 241.968, 409.159 241.402 C 400.585 240.819, 397.784 241.793, 399.607 244.722 C 400.542 246.225, 402.454 246.544, 411.964 246.784 C 419.790 246.981, 423.666 246.692, 424.701 245.833 C 425.902 244.837, 426.068 242.948, 425.566 236.049 C 425.223 231.347, 424.951 226.037, 424.960 224.250 C 424.970 222.463, 424.979 219.762, 424.979 218.250 C 424.980 216.738, 424.722 208.230, 424.404 199.344 C 423.905 185.368, 423.603 183.142, 422.164 182.844 C 421.249 182.655, 414.443 182.626, 407.040 182.780 M 11 184.439 C 7.930 185.287, 6.638 186.130, 6.933 187.091 C 7.172 187.866, 7.487 191.650, 7.635 195.500 C 7.783 199.350, 8.200 205.741, 8.562 209.703 C 9.040 214.931, 8.812 218.105, 7.729 221.282 C 6.446 225.046, 6.431 226.120, 7.619 228.945 C 8.423 230.857, 9 235.734, 9 240.615 C 9 249.290, 9.372 249.942, 13.164 247.912 C 14.971 246.945, 15.171 245.973, 14.964 239.162 C 14.837 234.948, 14.792 230.938, 14.866 230.250 C 14.956 229.407, 16.914 229, 20.878 229 C 24.954 229, 27.147 228.527, 28.035 227.458 C 30.117 224.949, 27.723 223.670, 20.781 223.581 C 14.769 223.503, 14.500 223.393, 14.500 221 C 14.500 219.089, 15.089 218.421, 17 218.165 C 18.375 217.981, 19.882 217.464, 20.349 217.016 C 21.447 215.963, 20.144 211.793, 18.949 212.532 C 18.450 212.840, 17.107 212.592, 15.964 211.981 C 14.332 211.107, 13.953 210.080, 14.194 207.185 L 14.500 203.500 21.361 203.781 C 28.665 204.080, 31 203.113, 31 199.789 C 31 197.977, 30.398 197.849, 23.272 198.146 C 15.944 198.452, 15.481 198.343, 14.336 196.048 C 12.188 191.738, 14.096 190.131, 21.761 189.795 C 27.821 189.530, 28.531 189.280, 28.811 187.314 C 29.364 183.433, 20.071 181.934, 11 184.439 M 97.347 185.057 C 87.375 189.993, 82.874 205.016, 89.679 210.645 C 96.092 215.950, 111.434 217.632, 115.968 213.529 C 117.068 212.534, 119.333 209.300, 121.002 206.343 L 124.036 200.967 127.039 203.187 C 129.182 204.772, 131.861 205.524, 136.388 205.812 L 142.732 206.216 143.987 211.447 C 144.931 215.381, 144.962 217.203, 144.112 218.791 C 143.264 220.374, 143.285 222.038, 144.196 225.441 C 145.301 229.573, 145.234 230.117, 143.455 231.507 C 142.065 232.592, 140.199 232.873, 137 232.479 C 126.604 231.199, 112.369 230.895, 109.750 231.898 C 107.117 232.906, 107 233.245, 107 239.853 C 107 244.742, 107.434 247.115, 108.487 247.989 C 110.900 249.992, 113 248.440, 113 244.654 C 113 240.184, 115.033 238.661, 121.333 238.413 C 124.175 238.301, 130.114 237.885, 134.531 237.489 C 141.348 236.877, 142.769 237.017, 143.928 238.414 C 145 239.705, 145.047 240.601, 144.147 242.577 C 142.711 245.729, 142.695 245.552, 144.571 247.429 C 149.813 252.670, 152 244.365, 152 219.219 C 152 203.048, 151.764 200.049, 150.400 198.917 C 148.666 197.478, 141.634 197.590, 138.807 199.103 C 136.903 200.122, 128 198.165, 128 196.727 C 128 196.255, 128.491 194.951, 129.092 193.829 C 129.698 192.696, 129.895 190.256, 129.536 188.338 C 128.922 185.066, 128.696 184.902, 125.194 185.193 C 121.680 185.485, 121.515 185.659, 121.814 188.750 C 121.990 190.577, 121.662 192, 121.064 192 C 120.479 192, 120 191.603, 120 191.117 C 120 190.631, 117.568 189.082, 114.595 187.675 C 111.622 186.267, 108.895 184.640, 108.536 184.058 C 107.474 182.341, 101.814 182.846, 97.347 185.057 M 278.200 184.200 C 276.690 185.710, 276.554 206.298, 278.035 209.066 C 278.998 210.865, 280.292 211, 296.596 211 L 314.121 211 313.810 207.250 L 313.500 203.500 308.500 203.633 C 305.750 203.707, 299.511 204.298, 294.635 204.946 C 289.759 205.595, 285.147 205.887, 284.385 205.594 C 283.377 205.208, 283 203.044, 283 197.654 C 283 188.924, 283.939 187.647, 289.686 188.566 C 293.956 189.249, 296.735 187.358, 295.643 184.513 C 294.906 182.591, 280.075 182.325, 278.200 184.200 M 355.350 184.531 C 353.528 189.279, 358.321 198.009, 364.353 200.929 C 370.136 203.729, 373.209 203.541, 379.860 199.982 C 384.838 197.319, 385.687 196.402, 387.091 192.168 C 389.058 186.235, 388.155 183, 384.532 183 C 382.499 183, 382 183.492, 382 185.497 C 382 186.962, 380.505 189.649, 378.384 191.997 C 375.569 195.113, 374.043 196, 371.500 196 C 368.957 196, 367.431 195.113, 364.616 191.997 C 362.495 189.649, 361 186.962, 361 185.497 C 361 183.492, 360.501 183, 358.469 183 C 357.076 183, 355.673 183.689, 355.350 184.531 M 49.667 185.667 C 48.576 186.757, 48.910 196.827, 50.060 197.537 C 51.555 198.461, 57 196.029, 57 194.438 C 57 193.712, 56.467 192.789, 55.816 192.387 C 54.104 191.328, 57.597 190.156, 62.715 190.070 C 67.113 189.997, 69.018 191.703, 68.985 195.684 C 68.956 199.059, 67.491 200.333, 65.106 199.057 C 62.522 197.674, 52.049 199.721, 51.262 201.763 C 50.125 204.717, 53.157 206.101, 60.312 205.892 C 66.109 205.723, 67.530 206.004, 68.654 207.542 C 70.969 210.708, 67.407 217.807, 64.807 215.207 C 63.156 213.556, 59.504 213.688, 58.040 215.452 C 56.487 217.323, 57.637 220.973, 59.817 221.092 C 60.743 221.142, 62.850 221.255, 64.500 221.342 L 67.500 221.500 67.156 230.071 C 66.841 237.939, 68.143 246.112, 70.068 248.349 C 71.179 249.640, 74.821 248.131, 75.249 246.203 C 75.457 245.266, 75.009 242.700, 74.253 240.500 C 73.472 238.223, 73.162 235.208, 73.534 233.500 C 74.595 228.629, 74.898 198.863, 73.913 196.271 C 73.286 194.623, 73.442 193.047, 74.416 191.163 C 75.384 189.291, 75.523 187.900, 74.863 186.719 C 74.038 185.245, 72.219 185, 62.117 185 C 55.636 185, 50.033 185.300, 49.667 185.667 M 368.200 186.200 C 366.570 187.830, 366.692 189.550, 368.571 191.429 C 370.634 193.491, 371.588 193.412, 374.023 190.977 C 375.630 189.370, 375.828 188.547, 374.988 186.977 C 373.811 184.779, 370.052 184.348, 368.200 186.200 M 95.750 194.976 C 94.237 197.204, 93 199.514, 93 200.109 C 93 202.086, 97.116 207.009, 100.029 208.515 C 103.878 210.506, 106.322 210.387, 111.040 207.980 C 114.905 206.008, 115 205.831, 115 200.635 C 115 193.502, 113.021 191.702, 104.693 191.257 L 98.500 190.926 95.750 194.976 M 183.397 198.250 C 184.687 206.647, 193.637 215.605, 201.834 216.705 L 206 217.263 205.961 211.382 C 205.925 205.864, 205.724 205.375, 202.711 203.480 C 200.945 202.369, 198.709 199.782, 197.742 197.730 L 195.984 194 189.364 194 L 182.744 194 183.397 198.250 M 100.750 197.080 C 98.568 198.351, 98.456 202.577, 100.582 203.393 C 103.131 204.371, 106.506 204.094, 107.800 202.800 C 111.660 198.940, 105.766 194.159, 100.750 197.080 M 234.113 197.409 C 233.636 198.009, 232.953 199.453, 232.597 200.618 C 231.359 204.666, 228.442 206.273, 222.581 206.138 C 219.572 206.069, 216.833 206.461, 216.495 207.009 C 216.156 207.557, 215.523 210.254, 215.089 213.003 L 214.299 218 220.468 218 C 233.382 218, 243.066 212.398, 245.774 203.360 C 247.784 196.652, 247.673 196.490, 240.991 196.399 C 237.686 196.354, 234.591 196.808, 234.113 197.409 M 397.309 200.250 C 395.844 202.514, 395.787 231.218, 397.243 233.991 C 398.877 237.105, 401.952 237.786, 403.684 235.418 C 405.351 233.138, 405.485 214.159, 403.860 210.592 C 402.990 208.683, 403.019 207.369, 403.982 205.044 C 404.988 202.614, 404.992 201.695, 403.999 200.499 C 402.489 198.679, 398.424 198.528, 397.309 200.250 M 321.952 204.838 C 318.923 207.291, 320.199 209, 325.059 209 C 328.549 209, 329 208.726, 329 206.607 C 329 204.480, 327.371 203, 325.029 203 C 324.585 203, 323.200 203.827, 321.952 204.838 M 356.035 208.457 C 355.171 209.499, 354.975 213.277, 355.348 221.707 C 355.985 236.109, 355.984 234.166, 355.355 242.250 L 354.829 249 372.931 249 L 391.032 249 392.658 245.591 C 394.632 241.452, 393.886 239, 390.654 239 C 388.147 239, 385.531 241.197, 386.675 242.342 C 387.498 243.164, 387.713 243.147, 374.599 243.340 C 361.857 243.527, 359.741 242.720, 361.985 238.528 C 363.188 236.280, 363.898 235.944, 366.458 236.412 C 369.827 237.027, 377.216 234.853, 377.810 233.071 C 378.018 232.445, 377.597 231.219, 376.873 230.347 C 375.832 229.093, 374.359 228.887, 369.829 229.360 C 365.396 229.823, 363.751 229.608, 362.551 228.408 C 358.997 224.854, 362.112 219.652, 366.415 221.955 C 367.833 222.714, 369.995 222.940, 371.875 222.527 C 374.090 222.041, 375.442 222.299, 376.565 223.422 C 379.818 226.675, 384.472 224.358, 383.827 219.805 C 383.542 217.794, 382.863 217.465, 378.500 217.229 C 375.750 217.080, 372.522 216.460, 371.327 215.851 C 370.132 215.242, 368.022 215.029, 366.638 215.376 C 363.718 216.109, 362.415 214.636, 362.870 211.114 C 363.359 207.330, 358.529 205.453, 356.035 208.457 M 48.039 209.928 C 46.660 212.503, 47.703 214.887, 50.517 215.594 C 55.225 216.775, 58.913 212.313, 55.800 209.200 C 53.902 207.302, 49.209 207.742, 48.039 209.928 M 129.950 210.093 C 126.427 216.677, 135.362 221.129, 139.364 214.784 C 140.080 213.649, 139.881 212.467, 138.658 210.601 C 136.482 207.279, 131.608 206.995, 129.950 210.093 M 85 220.500 C 85 221.875, 85.563 223.052, 86.250 223.116 C 86.938 223.180, 89.525 223.293, 92 223.366 L 96.500 223.500 96.793 231.914 C 97.132 241.644, 96.635 242.353, 90.110 241.446 C 85.368 240.787, 83.875 241.806, 84.739 245.111 C 85.171 246.761, 86.228 247, 93.081 247 C 99.817 247, 101.076 246.726, 101.965 245.066 C 103.449 242.292, 103.312 220.712, 101.800 219.200 C 101.072 218.472, 97.533 218, 92.800 218 C 85.147 218, 85 218.047, 85 220.500 M 303.667 218.667 C 303.300 219.033, 303 223.230, 303 227.992 C 303 235.727, 302.755 236.881, 300.707 238.806 C 297.341 241.968, 292.620 243.402, 290.071 242.038 C 288.205 241.039, 288 240.012, 288 231.665 C 288 222.183, 287.234 220, 283.907 220 C 281.773 220, 281 221.998, 281 227.517 C 281 229.911, 280.555 233.040, 280.011 234.470 C 279.244 236.487, 279.471 238.024, 281.024 241.327 C 283.589 246.785, 287.353 249, 294.060 249 C 303.696 249, 310 241.454, 310 229.918 L 310 223.756 312.250 225.255 C 314.355 226.658, 314.477 227.332, 314.145 235.746 C 313.760 245.484, 314.793 249, 318.035 249 C 319.897 249, 320 248.248, 320 234.707 L 320 220.415 315.486 219.207 C 310.542 217.885, 304.715 217.619, 303.667 218.667 M 326.093 219.387 C 325.315 220.325, 325.033 225.268, 325.221 234.637 L 325.500 248.500 328.019 248.794 C 330.229 249.052, 330.703 248.528, 331.889 244.510 C 333.002 240.742, 333.014 239.122, 331.960 235.356 C 330.925 231.660, 330.921 229.834, 331.939 225.862 C 332.932 221.985, 332.940 220.633, 331.977 219.472 C 330.438 217.617, 327.596 217.576, 326.093 219.387 M 107 223.300 C 107 226.500, 109.387 227, 124.665 227 C 138.548 227, 140.020 226.831, 140.930 225.131 C 141.480 224.104, 141.645 222.979, 141.298 222.631 C 140.951 222.284, 133.092 222, 123.833 222 C 110.688 222, 107 222.285, 107 223.300 M 175.098 235.149 C 172.611 242.284, 173.514 243, 185.010 243 C 190.810 243, 193.267 242.590, 194.429 241.429 C 197.939 237.918, 196.066 235.843, 187.356 233.589 C 178.139 231.205, 176.395 231.427, 175.098 235.149 M 234.142 234.906 C 228.057 235.667, 225.400 238.010, 227.074 241.138 C 227.915 242.709, 229.286 243, 235.844 243 C 244.965 243, 247.331 241.806, 246.836 237.451 C 246.539 234.840, 246.097 234.485, 243 234.368 C 241.075 234.296, 237.089 234.538, 234.142 234.906 M 27.182 320.500 C 28.362 323.089, 30.404 323.773, 31.527 321.956 C 32.427 320.501, 30.134 318, 27.899 318 C 26.282 318, 26.190 318.322, 27.182 320.500 M 67.093 319.388 C 66.382 320.244, 66.185 322.305, 66.578 324.763 C 67.032 327.599, 66.824 328.991, 65.858 329.589 C 65.111 330.051, 57.362 330.290, 48.637 330.119 L 32.774 329.809 34.637 332.990 L 36.500 336.170 50.682 335.851 C 58.482 335.675, 65.160 335.826, 65.521 336.187 C 65.882 336.548, 66.119 344.376, 66.049 353.583 L 65.920 370.322 69.156 373.661 C 70.936 375.498, 72.754 377, 73.196 377 C 73.638 377, 74 368.142, 74 357.314 C 74 338.277, 74.074 337.550, 76.250 335.230 L 78.500 332.830 76.250 331.005 C 74.462 329.554, 74 328.156, 74 324.197 C 74 320.576, 73.568 319.048, 72.418 318.607 C 69.931 317.653, 68.339 317.886, 67.093 319.388 M 125.750 319.080 C 123.418 320.438, 123.197 333.089, 125.473 334.977 C 126.507 335.835, 131.053 336.135, 140.723 335.982 C 148.300 335.862, 155.063 335.817, 155.750 335.882 C 157.451 336.043, 157.320 338.330, 155.281 344.072 C 153.815 348.201, 153.741 349.583, 154.781 353.470 C 156.533 360.023, 156.348 363.937, 154.250 364.695 C 153.287 365.043, 150.082 366.379, 147.127 367.663 C 142.426 369.707, 141.919 370.197, 143.071 371.586 C 144.467 373.267, 147.915 373.152, 155.391 371.176 C 161.992 369.430, 162.440 368.434, 163.009 354.214 C 163.290 347.221, 163.875 340.943, 164.311 340.262 C 164.760 339.560, 164.239 337.068, 163.108 334.512 L 161.112 330 146.525 330 C 130.704 330, 129.513 329.560, 131.794 324.552 C 132.600 322.784, 132.499 321.730, 131.369 320.116 C 129.738 317.787, 128.395 317.540, 125.750 319.080 M 203 318.950 C 202.175 319.511, 198.512 319.976, 194.861 319.985 C 186.114 320.005, 183.855 321.711, 183.508 328.557 C 183.371 331.276, 182.679 335.413, 181.971 337.750 C 180.919 341.224, 180.921 342.776, 181.984 346.250 C 182.700 348.587, 183.388 354.836, 183.513 360.136 C 183.638 365.435, 184.077 370.316, 184.488 370.981 C 184.982 371.780, 186.472 371.968, 188.868 371.536 C 190.866 371.176, 194.863 370.641, 197.750 370.348 L 203 369.815 203 376.991 C 203 382.376, 203.312 384.021, 204.250 383.584 C 204.938 383.263, 206.287 382.724, 207.250 382.384 C 208.718 381.866, 209 380.486, 209 373.808 L 209 365.850 199.250 366.175 L 189.500 366.500 189.862 349 C 190.337 326.098, 190.153 326.460, 201.701 325.739 C 211.158 325.149, 211.957 325.488, 211.985 330.095 C 212.004 333.346, 209.166 336, 205.671 336 C 203.667 336, 203 336.499, 203 338 C 203 339.810, 203.667 340, 210 340 C 215.484 340, 217 339.682, 217 338.534 C 217 337.728, 217.733 335.531, 218.628 333.653 C 220.147 330.468, 220.136 329.923, 218.458 325.530 C 217.283 322.453, 215.832 320.507, 214.271 319.913 C 210.195 318.363, 204.570 317.883, 203 318.950 M 223.486 319.250 C 223.238 319.938, 222.832 329.500, 222.585 340.500 C 222.337 351.500, 222.097 361.738, 222.053 363.250 C 222.009 364.762, 222.002 367.012, 222.038 368.250 C 222.075 369.488, 221.800 373.087, 221.428 376.250 L 220.752 382 224.857 382 C 228.287 382, 229.051 381.630, 229.502 379.750 C 230.373 376.122, 230.442 364.684, 229.607 362.388 C 228.467 359.254, 230.843 358.839, 238.699 360.801 L 245.500 362.500 245.788 370.029 L 246.076 377.559 241.492 379.449 C 236.296 381.592, 235.128 382.834, 237.122 384.096 C 240.884 386.479, 250.993 384.066, 252.379 380.455 C 252.720 379.565, 253 374.830, 253 369.934 C 253 361.623, 252.817 360.830, 250.250 358.003 C 247.317 354.773, 245.579 354.426, 237.500 355.457 C 234.750 355.808, 231.897 355.685, 231.159 355.183 C 230.121 354.476, 229.848 350.600, 229.949 338.008 C 230.063 324.004, 229.845 321.487, 228.385 319.873 C 226.437 317.720, 224.143 317.429, 223.486 319.250 M 245.571 319.571 C 243.700 321.442, 243.449 329.049, 245.200 330.800 C 245.860 331.460, 247.345 332, 248.500 332 C 251.674 332, 253 330.047, 253 325.371 C 253 321.090, 251.114 318, 248.500 318 C 247.754 318, 246.436 318.707, 245.571 319.571 M 287.791 318.988 C 279.742 321.415, 274 329.450, 274 338.287 C 274 343.532, 274.230 344.074, 277.524 346.586 C 283.761 351.343, 296.272 352.989, 302.266 349.840 C 303.238 349.330, 305.418 346.457, 307.112 343.456 C 310.431 337.575, 311.532 336.433, 312.449 337.918 C 313.432 339.508, 324.024 342.154, 326.887 341.525 C 329.383 340.977, 329.678 341.279, 331.070 345.815 C 332.270 349.726, 332.331 351.272, 331.379 353.605 C 330.438 355.913, 330.476 357.344, 331.565 360.508 C 332.823 364.162, 332.777 364.663, 331.019 366.423 C 329.795 367.649, 327.902 368.283, 325.799 368.173 C 302.479 366.950, 296.796 366.925, 295.452 368.040 C 294.467 368.857, 294 371.248, 294 375.467 C 294 380.444, 294.405 382.057, 296.024 383.521 C 298.586 385.840, 299.772 384.694, 300.183 379.500 L 300.500 375.500 306.500 374.850 C 309.800 374.493, 315.975 373.683, 320.223 373.051 C 330.536 371.515, 332.363 372.398, 331.452 378.474 C 330.892 382.203, 331.089 382.977, 332.834 383.911 C 335.704 385.447, 335.643 385.495, 337.406 380.322 C 339.509 374.151, 339.766 335.880, 337.716 334.179 C 336.834 333.447, 334.567 333.414, 330.466 334.075 C 323.015 335.275, 323.214 335.272, 319 334.233 C 316.306 333.569, 315.576 332.925, 315.831 331.435 C 317.087 324.104, 317.107 322.833, 315.989 321.486 C 314.487 319.677, 310.407 319.532, 309.346 321.249 C 308.921 321.937, 308.712 323.849, 308.882 325.499 L 309.190 328.500 306.845 326.444 C 304.400 324.300, 292.515 317.936, 291.235 318.086 C 290.831 318.133, 289.281 318.539, 287.791 318.988 M 95.607 321.582 C 94.470 324.543, 94.996 327.774, 96.999 330.139 C 98.961 332.456, 99.027 332.464, 100.499 330.559 C 101.325 329.491, 102 327.622, 102 326.405 C 102 324.453, 102.618 324.147, 107.250 323.799 C 114.215 323.275, 116.320 323.815, 115.366 325.881 C 114.955 326.772, 114.686 328.962, 114.767 330.750 C 114.848 332.538, 114.907 335.012, 114.898 336.250 C 114.873 339.836, 115.023 345.176, 115.271 349.500 L 115.500 353.500 106.257 353.150 C 98.399 352.852, 96.920 353.046, 96.383 354.443 C 95.401 357.002, 96.583 357.453, 104.463 357.524 C 112.602 357.597, 114.958 358.767, 114.266 362.389 C 114.016 363.696, 114.304 365.070, 114.906 365.442 C 115.508 365.814, 116 367.006, 116 368.090 C 116 370.558, 118.540 371.627, 120.513 369.989 C 121.755 368.959, 122 364.734, 122 344.378 L 122 320 109.107 320 C 98.273 320, 96.117 320.253, 95.607 321.582 M 373.847 324.436 C 371.535 329.511, 372.824 330.070, 385.724 329.589 C 397.371 329.155, 397.519 329.119, 399.245 326.325 C 400.204 324.771, 400.992 323.163, 400.995 322.750 C 400.998 322.337, 395.140 322, 387.979 322 C 375.150 322, 374.941 322.036, 373.847 324.436 M 357.200 325.200 C 355.815 326.585, 355.429 377, 356.804 377 C 357.246 377, 358.973 375.538, 360.641 373.750 L 363.675 370.500 363.850 348.067 C 364.031 324.887, 363.896 324.054, 359.950 324.015 C 359.097 324.007, 357.860 324.540, 357.200 325.200 M 286.310 326.728 C 284.805 327.760, 280 334.796, 280 335.968 C 280 337.770, 285.518 343.318, 288.585 344.600 C 291.944 346.003, 295.753 345.420, 299.818 342.881 C 301.642 341.743, 302 340.593, 302 335.874 C 302 330.835, 301.708 330.039, 299.279 328.447 C 296.306 326.499, 288.209 325.425, 286.310 326.728 M 287.200 333.200 C 283.685 336.715, 288.623 341.404, 293.500 339.182 C 297.916 337.170, 296.117 332, 291 332 C 289.570 332, 287.860 332.540, 287.200 333.200 M 368 339.103 L 368 343.205 374.750 342.853 L 381.500 342.500 382 346.500 L 382.500 350.500 386.250 345.606 C 392.903 336.924, 391.370 335, 377.800 335 L 368 335 368 339.103 M 129.077 343.077 C 126.840 345.314, 126 347.088, 126 349.577 C 126 351.460, 125.550 353, 125 353 C 122.454 353, 125.652 363.269, 128.545 364.379 C 129.435 364.720, 132.849 365, 136.131 365 C 145.289 365, 150.400 361.484, 147.936 356.880 C 146.535 354.262, 142.957 353, 136.935 353 C 134.221 353, 132 352.842, 132 352.649 C 132 352.456, 132.494 350.881, 133.098 349.149 C 134.403 345.406, 136.408 345.147, 142 348 C 146.791 350.444, 146.693 350.443, 147.961 348.072 C 150.289 343.724, 145.291 340, 137.127 340 C 132.907 340, 131.688 340.466, 129.077 343.077 M 43.158 345 C 45.291 347.885, 45.674 348, 53.129 348 C 61.484 348, 63.238 347.025, 60.443 343.937 C 58.960 342.298, 57.324 342, 49.815 342 L 40.940 342 43.158 345 M 318.051 344.949 C 315.731 347.269, 315.559 348.307, 317.035 351.066 C 318.222 353.283, 323.846 353.754, 325.800 351.800 C 328.340 349.260, 326.440 344.777, 322.301 343.550 C 320.785 343.100, 319.465 343.535, 318.051 344.949 M 368.744 347.750 C 368.421 348.399, 368.519 360.794, 368.875 364.196 C 368.944 364.854, 370.575 363.866, 372.500 362 C 375.313 359.274, 376 357.848, 376 354.738 C 376 349.618, 374.485 347, 371.524 347 C 370.201 347, 368.950 347.337, 368.744 347.750 M 206.750 349.080 C 205.787 349.641, 205 350.977, 205 352.050 C 205 353.658, 205.701 354, 209 354 C 212.185 354, 213 353.633, 213 352.200 C 213 350.199, 211.167 347.984, 209.550 348.030 C 208.972 348.047, 207.713 348.519, 206.750 349.080 M 50.688 352.695 C 50.414 353.138, 51.293 354.851, 52.641 356.500 L 55.092 359.500 54.796 356.008 C 54.515 352.697, 51.961 350.636, 50.688 352.695 M 272.667 353.667 C 272.300 354.033, 272 355.383, 272 356.667 C 272 358.854, 272.379 359, 278.039 359 L 284.078 359 283.789 367.750 L 283.500 376.500 277.750 376.800 C 272.396 377.079, 272 377.269, 272 379.550 C 272 381.955, 272.153 382, 280.393 382 C 287.124 382, 288.906 381.687, 289.393 380.418 C 289.727 379.548, 290 373.489, 290 366.953 C 290 356.228, 289.811 354.969, 288.066 354.035 C 285.937 352.896, 273.730 352.604, 272.667 353.667 M 294.667 357.667 C 293.625 358.709, 293.869 359.727, 295.571 361.429 C 296.859 362.716, 299.830 363, 312.036 363 C 325.957 363, 327 362.868, 328.011 360.979 C 328.606 359.868, 328.820 358.518, 328.487 357.979 C 327.811 356.885, 295.745 356.588, 294.667 357.667 M 97.709 369.624 C 96.664 370.669, 96.847 379.468, 97.975 382.435 L 98.950 385 129.419 385 C 159.770 385, 159.893 384.991, 161.443 382.777 C 163.409 379.972, 163.439 376.609, 161.513 375.011 C 159.656 373.469, 155 374.515, 155 376.474 C 155 378.181, 150.064 379.280, 144.456 378.823 C 140.979 378.539, 140.462 378.167, 140.184 375.750 C 139.920 373.463, 139.384 373, 137 373 C 134.616 373, 134.080 373.463, 133.816 375.750 C 133.539 378.160, 133.017 378.540, 129.595 378.820 C 123.935 379.283, 121.057 378.280, 119.989 375.472 C 118.534 371.644, 114 372.917, 114 377.155 C 114 378.358, 112.933 379.110, 110.605 379.546 C 105.487 380.506, 103.172 378.784, 102.807 373.745 C 102.562 370.357, 102.088 369.441, 100.459 369.208 C 99.336 369.047, 98.099 369.235, 97.709 369.624" stroke="none" fill="#f7f1f1" fill-rule="evenodd"/><path d="M 192.500 0.612 C 146.125 7.179, 110.150 22.232, 78.847 48.169 C 74.448 51.813, 74.223 52.241, 74.726 55.993 C 75.300 60.270, 73.498 66, 71.579 66 C 69.519 66, 68 63.698, 68 60.577 C 68 57.584, 67.930 57.623, 61.049 64.451 C 57.226 68.245, 54.320 71.708, 54.591 72.147 C 54.862 72.586, 56.753 73.378, 58.792 73.906 C 60.831 74.433, 64.436 75.369, 66.803 75.985 C 73.420 77.708, 75.058 79.934, 75.114 87.283 C 75.276 108.519, 74.672 113.652, 71.911 114.528 C 69.095 115.422, 68 114.278, 68 110.441 L 68 107 58.059 107 C 47.485 107, 45.609 106.195, 48.566 102.927 C 50.134 101.194, 51.185 101.052, 58.140 101.632 C 66.479 102.328, 69 101.464, 69 97.913 C 69 94.807, 65.555 93.816, 57.196 94.518 C 51.023 95.036, 49.104 94.854, 47.500 93.601 C 44.289 91.092, 47.271 90.033, 57.595 90.015 C 65.124 90.003, 66.975 89.685, 68.345 88.171 C 70.492 85.798, 70.432 84.701, 68.033 82.530 C 66.163 80.838, 54.319 77, 50.968 77 C 50.101 77, 47.071 80.054, 44.233 83.786 L 39.075 90.571 38.787 101.036 C 38.501 111.454, 38.489 111.500, 36 111.500 C 33.602 111.500, 33.500 111.248, 33.507 105.306 L 33.515 99.112 30.259 104.306 C 17.919 123.989, 7.482 152.262, 2.318 180 C -0.221 193.632, -0.221 236.368, 2.318 250 C 7.706 278.937, 21.938 316.993, 27.677 317.810 C 28.875 317.981, 30.433 318.817, 31.140 319.668 C 32.202 320.948, 32.137 321.427, 30.765 322.430 C 29.227 323.554, 29.243 323.871, 30.982 326.731 L 32.860 329.818 48.680 330.194 C 58.050 330.417, 65.044 330.172, 65.835 329.593 C 66.769 328.908, 66.983 327.369, 66.546 324.461 C 65.808 319.538, 67.539 317.417, 71.487 318.407 C 73.758 318.977, 74 319.527, 74 324.109 C 74 328.160, 74.452 329.546, 76.250 331.005 L 78.500 332.830 76.250 335.230 C 74.071 337.553, 74 338.262, 74 357.721 L 74 377.814 78.750 381.750 C 106.638 404.862, 140.889 420.400, 180 427.682 C 193.632 430.221, 236.368 430.221, 250 427.682 C 289.111 420.400, 323.362 404.862, 351.250 381.750 L 356 377.814 356 352.029 C 356 323.834, 356.156 323.069, 361.635 324.445 L 364.297 325.113 363.857 342.806 C 363.614 352.538, 363.660 362.690, 363.958 365.367 L 364.500 370.234 366.500 368.011 C 368.192 366.130, 368.500 364.380, 368.500 356.644 C 368.500 347.707, 368.555 347.492, 370.944 347.155 C 374.133 346.705, 376 349.316, 376 354.226 L 376 358.070 379.060 354.585 C 381.630 351.657, 382.070 350.412, 381.810 346.800 L 381.500 342.500 374.750 342.853 L 368 343.205 368 339.068 L 368 334.930 378.250 335.215 C 387.708 335.478, 388.574 335.670, 389.464 337.696 C 390.381 339.786, 390.586 339.669, 393.721 335.260 C 396.196 331.779, 396.702 330.417, 395.757 329.783 C 395.066 329.319, 389.894 329.231, 384.264 329.588 C 375.226 330.161, 373.953 330.040, 373.383 328.555 C 373.028 327.629, 373.248 325.752, 373.872 324.382 L 375.006 321.892 388.509 322.196 L 402.011 322.500 407.461 311.500 C 417.856 290.518, 425.452 266.295, 427.998 246 C 428.654 240.775, 429.597 235.719, 430.095 234.764 C 431.373 232.311, 431.282 193.708, 430 194.500 C 429.410 194.864, 428.999 193.760, 428.997 191.809 C 428.992 186.647, 426.198 171.592, 422.987 159.418 C 418.487 142.365, 408.265 117.095, 404.665 114.128 C 403.749 113.373, 402.997 112.023, 402.993 111.128 C 402.990 110.232, 402.093 108.150, 401 106.500 L 399.013 103.500 399.007 108.781 C 399 114.433, 397.334 116.352, 394.487 113.989 C 393.358 113.052, 393 110.418, 393 103.033 C 393 94.883, 392.704 93.042, 391.171 91.655 C 390.165 90.745, 389.040 90, 388.671 90 C 388.302 90, 388 92.947, 388 96.550 C 388 104.096, 386.608 107.381, 381.516 111.852 C 378.514 114.488, 377.114 115, 372.916 115 C 366.296 115, 362.491 112.883, 359.867 107.739 C 357.969 104.019, 357.849 103.013, 358.857 99.245 C 359.486 96.894, 360 92.953, 360 90.486 C 360 85.908, 360.789 85.214, 364.418 86.607 C 365.697 87.098, 366 88.920, 366 96.107 C 366 103.584, 366.310 105.310, 367.946 106.946 C 369.546 108.546, 370.465 108.727, 373.120 107.965 C 374.896 107.456, 377.621 105.821, 379.175 104.333 C 381.857 101.763, 382 101.179, 382 92.813 C 382 84.605, 382.140 84, 384.043 84 C 385.957 84, 385.909 83.780, 383.293 80.500 L 380.500 77 369.450 77 C 362.189 77, 357.989 76.589, 357.200 75.800 C 356.409 75.009, 356 70.776, 356 63.393 L 356 52.186 351.250 48.250 C 323.493 25.246, 288.875 9.503, 250.500 2.431 C 241.858 0.839, 200.139 -0.470, 192.500 0.612 M 140.242 50.109 C 137.770 51.333, 135.761 53.116, 135.454 54.359 C 135.162 55.536, 135.054 62.532, 135.212 69.904 L 135.500 83.307 139.422 85.341 C 143.881 87.653, 154.081 88.125, 157.672 86.186 C 162.797 83.418, 163 82.721, 163 67.881 C 163 54.236, 162.940 53.849, 160.486 51.574 C 156.046 47.459, 146.928 46.800, 140.242 50.109 M 267.571 49.571 C 266.336 50.807, 266 53.464, 266 62.006 C 266 73.422, 266.978 78, 269.416 78 C 271.604 78, 272.478 76.009, 272.490 71 L 272.500 66.500 280.298 66.207 C 286.169 65.987, 288.240 65.537, 288.681 64.390 C 289.715 61.695, 287.306 60.711, 280.112 60.893 C 274.151 61.043, 272.957 60.787, 272.093 59.173 C 271.367 57.818, 271.447 56.771, 272.371 55.508 C 273.472 54.002, 275.111 53.766, 283.417 53.921 C 294.436 54.126, 297.279 53.071, 294.370 49.857 C 292.915 48.248, 291.117 48, 280.916 48 C 271.547 48, 268.822 48.321, 267.571 49.571 M 304.406 49.386 C 304.113 50.148, 304.015 52.689, 304.187 55.034 C 304.622 60.963, 309.725 65.147, 317.286 65.774 C 321.900 66.156, 322.997 65.874, 325.691 63.607 C 327.395 62.173, 328.949 61, 329.144 61 C 330.061 60.999, 329.417 109.005, 328.500 109.062 C 318.879 109.663, 297.979 109.279, 297.899 108.500 C 297.843 107.950, 297.877 106.048, 297.973 104.273 C 298.219 99.759, 297.257 97.300, 295.013 96.714 C 290.247 95.467, 288.228 101.726, 290.811 109.743 L 292.500 114.986 313.731 114.993 C 334.949 115, 334.962 114.999, 335.419 112.750 C 336.280 108.508, 337.155 101.500, 337.010 100 C 336.119 90.777, 336.073 63.767, 336.943 60.313 C 337.633 57.571, 337.685 55.377, 337.086 54.257 C 336.569 53.291, 335.898 51.702, 335.596 50.727 C 334.384 46.824, 331.838 47.539, 326.490 53.285 C 321.453 58.697, 317.537 60.804, 314.606 59.679 C 313.837 59.384, 312.463 56.900, 311.553 54.159 C 310.049 49.632, 308.548 48, 305.887 48 C 305.365 48, 304.698 48.624, 304.406 49.386 M 194.535 51.278 C 189.489 54.136, 185.347 60.951, 184.694 67.466 C 184.227 72.136, 184.415 72.649, 187.848 76.065 C 190.837 79.039, 192.713 79.925, 198.179 80.949 C 210.268 83.213, 214.375 81.297, 219.509 71 C 221.806 66.394, 221.719 66.452, 223.744 68.162 C 226.531 70.515, 233.561 72.333, 237.441 71.703 C 240.468 71.212, 241 71.408, 241 73.016 C 241 74.055, 241.532 76.074, 242.183 77.502 C 243.095 79.504, 243.093 80.854, 242.174 83.397 C 241.212 86.056, 241.263 87.495, 242.439 90.827 C 243.729 94.484, 243.722 95.135, 242.379 96.478 C 240.082 98.776, 236.243 99.389, 232.043 98.131 C 226.898 96.589, 207.760 96.640, 206.200 98.200 C 205.503 98.897, 205 102.237, 205 106.165 C 205 111.929, 205.299 113.090, 207.021 114.011 C 209.808 115.503, 211 114.470, 211 110.563 C 211 106.252, 213.206 104.528, 218.905 104.384 C 221.432 104.320, 227.271 103.848, 231.881 103.336 C 241.926 102.219, 243.346 102.982, 242.388 108.976 C 241.875 112.180, 242.112 112.989, 243.827 113.907 C 246.169 115.161, 246.743 114.586, 248.727 109 C 250.538 103.900, 250.495 65.656, 248.676 64.146 C 247.433 63.114, 237.352 64.046, 235.169 65.395 C 234.728 65.668, 232.598 65.272, 230.434 64.516 C 226.369 63.096, 226.404 63.193, 227.667 56.865 C 228.378 53.305, 226.451 50, 223.665 50 C 220.414 50, 219.017 51.833, 219.692 55.209 L 220.275 58.127 216.498 55.563 C 214.421 54.153, 212.221 52.990, 211.610 52.978 C 211 52.966, 209.375 52.076, 208 51 C 204.682 48.405, 199.417 48.513, 194.535 51.278 M 99 50.729 C 96.316 51.751, 96.031 53.314, 96.015 67.095 C 96.002 79.235, 96.205 80.876, 97.917 82.425 C 100.334 84.612, 103.676 83.138, 104.594 79.480 C 105.134 77.328, 104.715 66.422, 103.806 59 C 103.517 56.641, 103.798 56.483, 108.802 56.196 C 114.697 55.858, 116.737 53.743, 113.471 51.355 C 111.633 50.011, 101.983 49.593, 99 50.729 M 124.025 51.975 C 121.283 54.717, 120.538 58.513, 121.869 62.957 C 122.491 65.033, 123 69.910, 123 73.795 C 123 81.548, 121.875 83.618, 117.180 84.501 C 110.424 85.772, 101.514 88.124, 99.125 89.266 C 96.566 90.491, 96.493 90.789, 96.218 101.088 L 95.936 111.654 101.933 113.322 C 106.684 114.642, 108.456 114.749, 110.462 113.835 C 112.376 112.963, 113.938 112.964, 116.863 113.841 C 121.786 115.316, 135.298 115.209, 140.455 113.654 C 145.264 112.204, 149.016 106.929, 146.982 104.479 C 145.164 102.287, 139.928 102.561, 139.322 104.878 C 138.486 108.073, 134.366 109.279, 128.991 107.901 C 125.424 106.987, 123.512 106.975, 121.002 107.850 C 116.935 109.267, 108.521 109.349, 105.993 107.996 C 104.430 107.160, 104.149 105.950, 104.308 100.746 L 104.500 94.500 111.698 93.422 C 116.748 92.666, 120.124 91.493, 123.008 89.495 C 128.274 85.845, 129 84.378, 129 77.387 C 129 74.227, 129.532 70.170, 130.183 68.370 C 131.099 65.837, 131.093 64.499, 130.156 62.444 C 129.204 60.353, 129.215 59.049, 130.208 56.302 C 131.338 53.176, 131.270 52.670, 129.543 51.408 C 127.015 49.559, 126.375 49.625, 124.025 51.975 M 197.494 56.765 C 195.606 58.145, 191 64.863, 191 66.238 C 191 66.992, 192.490 69.236, 194.311 71.224 C 198.709 76.026, 203.280 76.918, 208.870 74.067 L 213 71.959 213 66.069 L 213 60.178 208.684 58.089 C 204.346 55.989, 199.364 55.400, 197.494 56.765 M 141.216 67.642 L 141.500 78.283 146 79.626 C 152.023 81.424, 155.651 81.352, 156.393 79.418 C 156.727 78.548, 157 73.148, 157 67.418 L 157 57 148.966 57 L 140.932 57 141.216 67.642 M 294.250 59.031 C 292.659 59.671, 292 60.765, 292 62.768 C 292 66.294, 293.630 68, 297 68 C 298.430 68, 300.140 67.460, 300.800 66.800 C 302.701 64.899, 302.258 60.208, 300.066 59.035 C 297.803 57.824, 297.254 57.824, 294.250 59.031 M 361.850 63.453 C 361.657 66.587, 361.860 69.792, 362.300 70.576 C 363.123 72.041, 367.257 72.272, 372.288 71.132 L 375.077 70.500 368.638 64.128 L 362.199 57.755 361.850 63.453 M 198.750 63.056 C 196.629 64.320, 196.472 67.317, 198.440 68.950 C 200.409 70.584, 205.058 69.883, 206.394 67.750 C 208.734 64.013, 203.026 60.508, 198.750 63.056 M 303.492 67.382 C 301.765 68.645, 301.717 69.114, 302.941 72.821 C 303.844 75.556, 304.020 78.282, 303.481 81.189 C 303.042 83.560, 302.642 89.325, 302.592 94 L 302.500 102.500 311.500 102.500 L 320.500 102.500 320.500 85.610 L 320.500 68.721 316 67.376 C 310.206 65.643, 305.867 65.646, 303.492 67.382 M 311.272 73.755 C 309.506 75.347, 309.387 76.467, 309.918 86.500 C 310.450 96.547, 310.669 97.500, 312.453 97.500 C 314.269 97.500, 314.427 96.641, 314.687 85.299 C 314.842 78.589, 314.572 72.853, 314.088 72.554 C 313.604 72.255, 312.337 72.796, 311.272 73.755 M 227.783 76.578 C 226.509 79.374, 227.309 81.531, 230.325 83.433 C 232.575 84.851, 237.386 82.218, 237.803 79.341 C 238.555 74.153, 229.967 71.784, 227.783 76.578 M 183 86.450 C 183 88.731, 183.396 88.921, 188.750 89.200 L 194.500 89.500 194.789 98.250 C 195.111 108.001, 195.674 107.352, 187.176 107.013 C 182.986 106.845, 182.862 106.928, 183.176 109.670 C 183.492 112.430, 183.667 112.507, 190.231 112.795 C 200.865 113.262, 201 113.089, 201 99.047 C 201 92.511, 200.727 86.452, 200.393 85.582 C 199.906 84.313, 198.124 84, 191.393 84 C 183.153 84, 183 84.045, 183 86.450 M 268.835 84.634 C 266.980 85.169, 265.690 87.690, 266.556 89.090 C 266.865 89.591, 268.937 90, 271.160 90 L 275.201 90 274.590 94.750 C 274.254 97.362, 273.712 102.717, 273.385 106.650 C 272.833 113.303, 272.938 113.845, 274.896 114.467 C 276.053 114.834, 277.941 114.836, 279.091 114.471 C 281.058 113.847, 281.171 113.174, 280.979 103.154 C 280.867 97.294, 280.826 91.938, 280.888 91.250 C 280.967 90.364, 283.315 90, 288.941 90 C 293.309 90, 297.119 89.616, 297.409 89.147 C 297.699 88.678, 297.313 87.441, 296.551 86.397 C 295.333 84.730, 293.671 84.479, 282.833 84.327 C 276.050 84.232, 269.751 84.370, 268.835 84.634 M 206 87.987 C 204.839 88.727, 204.750 89.345, 205.608 90.722 C 206.578 92.280, 208.619 92.534, 222.101 92.777 C 235.612 93.021, 237.638 92.848, 238.726 91.359 C 241.389 87.718, 238.724 86.999, 222.628 87.015 C 214.307 87.024, 206.825 87.461, 206 87.987 M 140.200 92.200 C 139.540 92.860, 139 94.570, 139 96 C 139 99.305, 140.695 101, 144 101 C 147.189 101, 149 99.323, 149 96.371 C 149 91.992, 143.171 89.229, 140.200 92.200 M 156.200 92.200 C 155.430 92.970, 155 96.916, 155 103.221 C 155 112.696, 155.087 113.083, 157.470 114.168 C 161.939 116.204, 163 114.075, 163 103.078 C 163 93.241, 162.258 91, 159 91 C 158.120 91, 156.860 91.540, 156.200 92.200 M 207.386 155.713 C 203.052 156.260, 198.967 160.830, 198.288 165.888 C 197.576 171.200, 199.023 171.138, 201.526 165.750 C 202.612 163.412, 204.625 160.944, 206 160.265 C 209.355 158.607, 221.270 158.668, 225.329 160.364 C 228.875 161.846, 234 167.291, 234 169.577 C 234 170.360, 234.675 171, 235.500 171 C 239.121 171, 235.370 159.798, 231.178 158.095 C 224.948 155.562, 215.818 154.649, 207.386 155.713 M 196.570 173.887 C 195.889 174.988, 198.438 177.229, 199.342 176.325 C 199.704 175.963, 200 175.067, 200 174.333 C 200 172.844, 197.422 172.508, 196.570 173.887 M 234.190 175.750 C 234.376 176.713, 235.415 177.500, 236.500 177.500 C 237.585 177.500, 238.624 176.713, 238.810 175.750 C 239.062 174.439, 238.482 174, 236.500 174 C 234.518 174, 233.938 174.439, 234.190 175.750 M 175.965 177.542 C 172.474 181.749, 177.552 207.400, 183.192 214.041 C 186.420 217.842, 192.215 221.132, 198.347 222.646 L 205 224.287 204.995 229.894 C 204.992 232.977, 204.703 239.822, 204.354 245.104 L 203.718 254.707 189.091 255.269 C 174.603 255.826, 169 257.041, 169 259.625 C 169 260.343, 169.792 261.353, 170.759 261.871 C 171.741 262.397, 189.300 262.942, 210.509 263.105 C 250.326 263.412, 251.708 263.282, 253.990 259.019 C 255.780 255.675, 252.374 255, 233.710 255 L 216.289 255 215.652 248.250 C 215.301 244.537, 215.011 237.832, 215.007 233.348 L 215 225.196 221.250 224.479 C 239.391 222.398, 250.786 214.192, 255.581 199.756 C 257.396 194.293, 257.829 179.429, 256.220 177.820 C 254.353 175.953, 249.725 181.317, 249.089 186.087 L 248.500 190.500 241.108 190.698 C 237.042 190.806, 233.161 191.108, 232.483 191.368 C 231.805 191.628, 230.943 193.891, 230.568 196.397 C 230.192 198.903, 229.467 201.211, 228.957 201.526 C 227.239 202.588, 206.312 202.238, 204.208 201.112 C 203.072 200.503, 201.261 197.642, 200.185 194.753 L 198.228 189.500 190.372 188.500 L 182.516 187.500 181.848 182.800 C 181.481 180.215, 180.888 177.628, 180.531 177.050 C 179.591 175.530, 177.443 175.761, 175.965 177.542 M 212.597 178.212 C 209.159 183.458, 214.896 188.548, 219.292 184.153 C 221.031 182.413, 221.231 181.557, 220.432 179.272 C 219.118 175.513, 214.752 174.923, 212.597 178.212 M 197.166 183.139 C 197.350 184.437, 197.950 185.387, 198.500 185.250 C 199.976 184.881, 199.716 181.739, 198.166 181.222 C 197.251 180.917, 196.937 181.520, 197.166 183.139 M 39.182 183.585 C 37.021 185.099, 37 185.403, 37 215.485 C 37 242.160, 37.197 246.055, 38.621 247.479 C 39.513 248.370, 40.976 248.960, 41.871 248.790 C 43.200 248.537, 43.592 246.698, 44 238.819 C 44.275 233.505, 44.775 228.884, 45.111 228.551 C 45.448 228.217, 46.910 228.395, 48.361 228.947 C 50.921 229.921, 51 230.199, 51 238.275 C 51 243.417, 51.459 247.059, 52.200 247.800 C 56.251 251.851, 59.456 244.911, 58.381 234.415 C 57.823 228.969, 57.269 227.562, 54.894 225.564 C 53.340 224.257, 50.222 222.875, 47.965 222.494 C 45.708 222.113, 43.622 221.179, 43.330 220.418 C 43.038 219.658, 43.509 216.954, 44.376 214.408 C 45.477 211.180, 45.658 209.229, 44.977 207.956 C 44.439 206.953, 44 201.207, 44 195.188 C 44 183.023, 43.095 180.844, 39.182 183.585 M 232.336 183.567 C 232.005 184.429, 232.247 185.647, 232.874 186.274 C 234.282 187.682, 237.616 184.806, 236.559 183.096 C 235.561 181.481, 233.028 181.764, 232.336 183.567 M 334.135 183.585 C 331.822 184.558, 330.269 184.679, 328.978 183.988 C 326.246 182.526, 310.115 182.816, 305.535 184.410 C 300.791 186.061, 300.163 187.300, 303.047 189.320 C 304.693 190.474, 305.873 190.592, 308.076 189.824 C 309.660 189.272, 313.778 189.071, 317.227 189.379 C 320.677 189.686, 327.311 190.064, 331.970 190.219 L 340.440 190.500 340.133 202.592 C 339.877 212.671, 340.095 214.952, 341.442 216.299 C 344.520 219.377, 345.721 217.368, 346.292 208.191 C 346.904 198.364, 346.747 186.373, 345.998 185.744 C 345.724 185.514, 343.687 184.621, 341.472 183.760 C 337.972 182.399, 337.011 182.376, 334.135 183.585 M 407.040 182.780 C 397.811 182.973, 393.337 183.444, 392.805 184.280 C 391.500 186.334, 391.915 192.684, 393.436 193.947 C 395.549 195.701, 399.034 193.581, 398.734 190.724 C 398.507 188.567, 398.783 188.500, 407.871 188.500 L 417.242 188.500 417.572 211.808 C 417.754 224.627, 418.186 236.011, 418.534 237.106 C 419.747 240.929, 417.479 241.968, 409.159 241.402 C 400.585 240.819, 397.784 241.793, 399.607 244.722 C 400.542 246.225, 402.454 246.544, 411.964 246.784 C 419.790 246.981, 423.666 246.692, 424.701 245.833 C 425.902 244.837, 426.068 242.948, 425.566 236.049 C 425.223 231.347, 424.951 226.037, 424.960 224.250 C 424.970 222.463, 424.979 219.762, 424.979 218.250 C 424.980 216.738, 424.722 208.230, 424.404 199.344 C 423.905 185.368, 423.603 183.142, 422.164 182.844 C 421.249 182.655, 414.443 182.626, 407.040 182.780 M 11 184.439 C 7.930 185.287, 6.638 186.130, 6.933 187.091 C 7.172 187.866, 7.487 191.650, 7.635 195.500 C 7.783 199.350, 8.200 205.741, 8.562 209.703 C 9.040 214.931, 8.812 218.105, 7.729 221.282 C 6.446 225.046, 6.431 226.120, 7.619 228.945 C 8.423 230.857, 9 235.734, 9 240.615 C 9 249.290, 9.372 249.942, 13.164 247.912 C 14.971 246.945, 15.171 245.973, 14.964 239.162 C 14.837 234.948, 14.792 230.938, 14.866 230.250 C 14.956 229.407, 16.914 229, 20.878 229 C 24.954 229, 27.147 228.527, 28.035 227.458 C 30.117 224.949, 27.723 223.670, 20.781 223.581 C 14.769 223.503, 14.500 223.393, 14.500 221 C 14.500 219.089, 15.089 218.421, 17 218.165 C 18.375 217.981, 19.882 217.464, 20.349 217.016 C 21.447 215.963, 20.144 211.793, 18.949 212.532 C 18.450 212.840, 17.107 212.592, 15.964 211.981 C 14.332 211.107, 13.953 210.080, 14.194 207.185 L 14.500 203.500 21.361 203.781 C 28.665 204.080, 31 203.113, 31 199.789 C 31 197.977, 30.398 197.849, 23.272 198.146 C 15.944 198.452, 15.481 198.343, 14.336 196.048 C 12.188 191.738, 14.096 190.131, 21.761 189.795 C 27.821 189.530, 28.531 189.280, 28.811 187.314 C 29.364 183.433, 20.071 181.934, 11 184.439 M 97.347 185.057 C 87.375 189.993, 82.874 205.016, 89.679 210.645 C 96.092 215.950, 111.434 217.632, 115.968 213.529 C 117.068 212.534, 119.333 209.300, 121.002 206.343 L 124.036 200.967 127.039 203.187 C 129.182 204.772, 131.861 205.524, 136.388 205.812 L 142.732 206.216 143.987 211.447 C 144.931 215.381, 144.962 217.203, 144.112 218.791 C 143.264 220.374, 143.285 222.038, 144.196 225.441 C 145.301 229.573, 145.234 230.117, 143.455 231.507 C 142.065 232.592, 140.199 232.873, 137 232.479 C 126.604 231.199, 112.369 230.895, 109.750 231.898 C 107.117 232.906, 107 233.245, 107 239.853 C 107 244.742, 107.434 247.115, 108.487 247.989 C 110.900 249.992, 113 248.440, 113 244.654 C 113 240.184, 115.033 238.661, 121.333 238.413 C 124.175 238.301, 130.114 237.885, 134.531 237.489 C 141.348 236.877, 142.769 237.017, 143.928 238.414 C 145 239.705, 145.047 240.601, 144.147 242.577 C 142.711 245.729, 142.695 245.552, 144.571 247.429 C 149.813 252.670, 152 244.365, 152 219.219 C 152 203.048, 151.764 200.049, 150.400 198.917 C 148.666 197.478, 141.634 197.590, 138.807 199.103 C 136.903 200.122, 128 198.165, 128 196.727 C 128 196.255, 128.491 194.951, 129.092 193.829 C 129.698 192.696, 129.895 190.256, 129.536 188.338 C 128.922 185.066, 128.696 184.902, 125.194 185.193 C 121.680 185.485, 121.515 185.659, 121.814 188.750 C 121.990 190.577, 121.662 192, 121.064 192 C 120.479 192, 120 191.603, 120 191.117 C 120 190.631, 117.568 189.082, 114.595 187.675 C 111.622 186.267, 108.895 184.640, 108.536 184.058 C 107.474 182.341, 101.814 182.846, 97.347 185.057 M 278.200 184.200 C 276.690 185.710, 276.554 206.298, 278.035 209.066 C 278.998 210.865, 280.292 211, 296.596 211 L 314.121 211 313.810 207.250 L 313.500 203.500 308.500 203.633 C 305.750 203.707, 299.511 204.298, 294.635 204.946 C 289.759 205.595, 285.147 205.887, 284.385 205.594 C 283.377 205.208, 283 203.044, 283 197.654 C 283 188.924, 283.939 187.647, 289.686 188.566 C 293.956 189.249, 296.735 187.358, 295.643 184.513 C 294.906 182.591, 280.075 182.325, 278.200 184.200 M 355.350 184.531 C 353.528 189.279, 358.321 198.009, 364.353 200.929 C 370.136 203.729, 373.209 203.541, 379.860 199.982 C 384.838 197.319, 385.687 196.402, 387.091 192.168 C 389.058 186.235, 388.155 183, 384.532 183 C 382.499 183, 382 183.492, 382 185.497 C 382 186.962, 380.505 189.649, 378.384 191.997 C 375.569 195.113, 374.043 196, 371.500 196 C 368.957 196, 367.431 195.113, 364.616 191.997 C 362.495 189.649, 361 186.962, 361 185.497 C 361 183.492, 360.501 183, 358.469 183 C 357.076 183, 355.673 183.689, 355.350 184.531 M 49.667 185.667 C 48.576 186.757, 48.910 196.827, 50.060 197.537 C 51.555 198.461, 57 196.029, 57 194.438 C 57 193.712, 56.467 192.789, 55.816 192.387 C 54.104 191.328, 57.597 190.156, 62.715 190.070 C 67.113 189.997, 69.018 191.703, 68.985 195.684 C 68.956 199.059, 67.491 200.333, 65.106 199.057 C 62.522 197.674, 52.049 199.721, 51.262 201.763 C 50.125 204.717, 53.157 206.101, 60.312 205.892 C 66.109 205.723, 67.530 206.004, 68.654 207.542 C 70.969 210.708, 67.407 217.807, 64.807 215.207 C 63.156 213.556, 59.504 213.688, 58.040 215.452 C 56.487 217.323, 57.637 220.973, 59.817 221.092 C 60.743 221.142, 62.850 221.255, 64.500 221.342 L 67.500 221.500 67.156 230.071 C 66.841 237.939, 68.143 246.112, 70.068 248.349 C 71.179 249.640, 74.821 248.131, 75.249 246.203 C 75.457 245.266, 75.009 242.700, 74.253 240.500 C 73.472 238.223, 73.162 235.208, 73.534 233.500 C 74.595 228.629, 74.898 198.863, 73.913 196.271 C 73.286 194.623, 73.442 193.047, 74.416 191.163 C 75.384 189.291, 75.523 187.900, 74.863 186.719 C 74.038 185.245, 72.219 185, 62.117 185 C 55.636 185, 50.033 185.300, 49.667 185.667 M 368.200 186.200 C 366.570 187.830, 366.692 189.550, 368.571 191.429 C 370.634 193.491, 371.588 193.412, 374.023 190.977 C 375.630 189.370, 375.828 188.547, 374.988 186.977 C 373.811 184.779, 370.052 184.348, 368.200 186.200 M 95.750 194.976 C 94.237 197.204, 93 199.514, 93 200.109 C 93 202.086, 97.116 207.009, 100.029 208.515 C 103.878 210.506, 106.322 210.387, 111.040 207.980 C 114.905 206.008, 115 205.831, 115 200.635 C 115 193.502, 113.021 191.702, 104.693 191.257 L 98.500 190.926 95.750 194.976 M 183.397 198.250 C 184.687 206.647, 193.637 215.605, 201.834 216.705 L 206 217.263 205.961 211.382 C 205.925 205.864, 205.724 205.375, 202.711 203.480 C 200.945 202.369, 198.709 199.782, 197.742 197.730 L 195.984 194 189.364 194 L 182.744 194 183.397 198.250 M 0.422 215 C 0.422 226.275, 0.568 230.887, 0.746 225.250 C 0.924 219.613, 0.924 210.387, 0.746 204.750 C 0.568 199.113, 0.422 203.725, 0.422 215 M 100.750 197.080 C 98.568 198.351, 98.456 202.577, 100.582 203.393 C 103.131 204.371, 106.506 204.094, 107.800 202.800 C 111.660 198.940, 105.766 194.159, 100.750 197.080 M 234.113 197.409 C 233.636 198.009, 232.953 199.453, 232.597 200.618 C 231.359 204.666, 228.442 206.273, 222.581 206.138 C 219.572 206.069, 216.833 206.461, 216.495 207.009 C 216.156 207.557, 215.523 210.254, 215.089 213.003 L 214.299 218 220.468 218 C 233.382 218, 243.066 212.398, 245.774 203.360 C 247.784 196.652, 247.673 196.490, 240.991 196.399 C 237.686 196.354, 234.591 196.808, 234.113 197.409 M 397.309 200.250 C 395.844 202.514, 395.787 231.218, 397.243 233.991 C 398.877 237.105, 401.952 237.786, 403.684 235.418 C 405.351 233.138, 405.485 214.159, 403.860 210.592 C 402.990 208.683, 403.019 207.369, 403.982 205.044 C 404.988 202.614, 404.992 201.695, 403.999 200.499 C 402.489 198.679, 398.424 198.528, 397.309 200.250 M 321.952 204.838 C 318.923 207.291, 320.199 209, 325.059 209 C 328.549 209, 329 208.726, 329 206.607 C 329 204.480, 327.371 203, 325.029 203 C 324.585 203, 323.200 203.827, 321.952 204.838 M 356.035 208.457 C 355.171 209.499, 354.975 213.277, 355.348 221.707 C 355.985 236.109, 355.984 234.166, 355.355 242.250 L 354.829 249 372.931 249 L 391.032 249 392.658 245.591 C 394.632 241.452, 393.886 239, 390.654 239 C 388.147 239, 385.531 241.197, 386.675 242.342 C 387.498 243.164, 387.713 243.147, 374.599 243.340 C 361.857 243.527, 359.741 242.720, 361.985 238.528 C 363.188 236.280, 363.898 235.944, 366.458 236.412 C 369.827 237.027, 377.216 234.853, 377.810 233.071 C 378.018 232.445, 377.597 231.219, 376.873 230.347 C 375.832 229.093, 374.359 228.887, 369.829 229.360 C 365.396 229.823, 363.751 229.608, 362.551 228.408 C 358.997 224.854, 362.112 219.652, 366.415 221.955 C 367.833 222.714, 369.995 222.940, 371.875 222.527 C 374.090 222.041, 375.442 222.299, 376.565 223.422 C 379.818 226.675, 384.472 224.358, 383.827 219.805 C 383.542 217.794, 382.863 217.465, 378.500 217.229 C 375.750 217.080, 372.522 216.460, 371.327 215.851 C 370.132 215.242, 368.022 215.029, 366.638 215.376 C 363.718 216.109, 362.415 214.636, 362.870 211.114 C 363.359 207.330, 358.529 205.453, 356.035 208.457 M 48.039 209.928 C 46.660 212.503, 47.703 214.887, 50.517 215.594 C 55.225 216.775, 58.913 212.313, 55.800 209.200 C 53.902 207.302, 49.209 207.742, 48.039 209.928 M 129.950 210.093 C 126.427 216.677, 135.362 221.129, 139.364 214.784 C 140.080 213.649, 139.881 212.467, 138.658 210.601 C 136.482 207.279, 131.608 206.995, 129.950 210.093 M 85 220.500 C 85 221.875, 85.563 223.052, 86.250 223.116 C 86.938 223.180, 89.525 223.293, 92 223.366 L 96.500 223.500 96.793 231.914 C 97.132 241.644, 96.635 242.353, 90.110 241.446 C 85.368 240.787, 83.875 241.806, 84.739 245.111 C 85.171 246.761, 86.228 247, 93.081 247 C 99.817 247, 101.076 246.726, 101.965 245.066 C 103.449 242.292, 103.312 220.712, 101.800 219.200 C 101.072 218.472, 97.533 218, 92.800 218 C 85.147 218, 85 218.047, 85 220.500 M 303.667 218.667 C 303.300 219.033, 303 223.230, 303 227.992 C 303 235.727, 302.755 236.881, 300.707 238.806 C 297.341 241.968, 292.620 243.402, 290.071 242.038 C 288.205 241.039, 288 240.012, 288 231.665 C 288 222.183, 287.234 220, 283.907 220 C 281.773 220, 281 221.998, 281 227.517 C 281 229.911, 280.555 233.040, 280.011 234.470 C 279.244 236.487, 279.471 238.024, 281.024 241.327 C 283.589 246.785, 287.353 249, 294.060 249 C 303.696 249, 310 241.454, 310 229.918 L 310 223.756 312.250 225.255 C 314.355 226.658, 314.477 227.332, 314.145 235.746 C 313.760 245.484, 314.793 249, 318.035 249 C 319.897 249, 320 248.248, 320 234.707 L 320 220.415 315.486 219.207 C 310.542 217.885, 304.715 217.619, 303.667 218.667 M 326.093 219.387 C 325.315 220.325, 325.033 225.268, 325.221 234.637 L 325.500 248.500 328.019 248.794 C 330.229 249.052, 330.703 248.528, 331.889 244.510 C 333.002 240.742, 333.014 239.122, 331.960 235.356 C 330.925 231.660, 330.921 229.834, 331.939 225.862 C 332.932 221.985, 332.940 220.633, 331.977 219.472 C 330.438 217.617, 327.596 217.576, 326.093 219.387 M 107 223.300 C 107 226.500, 109.387 227, 124.665 227 C 138.548 227, 140.020 226.831, 140.930 225.131 C 141.480 224.104, 141.645 222.979, 141.298 222.631 C 140.951 222.284, 133.092 222, 123.833 222 C 110.688 222, 107 222.285, 107 223.300 M 175.098 235.149 C 172.611 242.284, 173.514 243, 185.010 243 C 190.810 243, 193.267 242.590, 194.429 241.429 C 197.939 237.918, 196.066 235.843, 187.356 233.589 C 178.139 231.205, 176.395 231.427, 175.098 235.149 M 234.142 234.906 C 228.057 235.667, 225.400 238.010, 227.074 241.138 C 227.915 242.709, 229.286 243, 235.844 243 C 244.965 243, 247.331 241.806, 246.836 237.451 C 246.539 234.840, 246.097 234.485, 243 234.368 C 241.075 234.296, 237.089 234.538, 234.142 234.906 M 125.750 319.080 C 123.418 320.438, 123.197 333.089, 125.473 334.977 C 126.507 335.835, 131.053 336.135, 140.723 335.982 C 148.300 335.862, 155.063 335.817, 155.750 335.882 C 157.451 336.043, 157.320 338.330, 155.281 344.072 C 153.815 348.201, 153.741 349.583, 154.781 353.470 C 156.533 360.023, 156.348 363.937, 154.250 364.695 C 153.287 365.043, 150.082 366.379, 147.127 367.663 C 142.426 369.707, 141.919 370.197, 143.071 371.586 C 144.467 373.267, 147.915 373.152, 155.391 371.176 C 161.992 369.430, 162.440 368.434, 163.009 354.214 C 163.290 347.221, 163.875 340.943, 164.311 340.262 C 164.760 339.560, 164.239 337.068, 163.108 334.512 L 161.112 330 146.525 330 C 130.704 330, 129.513 329.560, 131.794 324.552 C 132.600 322.784, 132.499 321.730, 131.369 320.116 C 129.738 317.787, 128.395 317.540, 125.750 319.080 M 203 318.950 C 202.175 319.511, 198.512 319.976, 194.861 319.985 C 186.114 320.005, 183.855 321.711, 183.508 328.557 C 183.371 331.276, 182.679 335.413, 181.971 337.750 C 180.919 341.224, 180.921 342.776, 181.984 346.250 C 182.700 348.587, 183.388 354.836, 183.513 360.136 C 183.638 365.435, 184.077 370.316, 184.488 370.981 C 184.982 371.780, 186.472 371.968, 188.868 371.536 C 190.866 371.176, 194.863 370.641, 197.750 370.348 L 203 369.815 203 376.991 C 203 382.376, 203.312 384.021, 204.250 383.584 C 204.938 383.263, 206.287 382.724, 207.250 382.384 C 208.718 381.866, 209 380.486, 209 373.808 L 209 365.850 199.250 366.175 L 189.500 366.500 189.862 349 C 190.337 326.098, 190.153 326.460, 201.701 325.739 C 211.158 325.149, 211.957 325.488, 211.985 330.095 C 212.004 333.346, 209.166 336, 205.671 336 C 203.667 336, 203 336.499, 203 338 C 203 339.810, 203.667 340, 210 340 C 215.484 340, 217 339.682, 217 338.534 C 217 337.728, 217.733 335.531, 218.628 333.653 C 220.147 330.468, 220.136 329.923, 218.458 325.530 C 217.283 322.453, 215.832 320.507, 214.271 319.913 C 210.195 318.363, 204.570 317.883, 203 318.950 M 223.486 319.250 C 223.238 319.938, 222.832 329.500, 222.585 340.500 C 222.337 351.500, 222.097 361.738, 222.053 363.250 C 222.009 364.762, 222.002 367.012, 222.038 368.250 C 222.075 369.488, 221.800 373.087, 221.428 376.250 L 220.752 382 224.857 382 C 228.287 382, 229.051 381.630, 229.502 379.750 C 230.373 376.122, 230.442 364.684, 229.607 362.388 C 228.467 359.254, 230.843 358.839, 238.699 360.801 L 245.500 362.500 245.788 370.029 L 246.076 377.559 241.492 379.449 C 236.296 381.592, 235.128 382.834, 237.122 384.096 C 240.884 386.479, 250.993 384.066, 252.379 380.455 C 252.720 379.565, 253 374.830, 253 369.934 C 253 361.623, 252.817 360.830, 250.250 358.003 C 247.317 354.773, 245.579 354.426, 237.500 355.457 C 234.750 355.808, 231.897 355.685, 231.159 355.183 C 230.121 354.476, 229.848 350.600, 229.949 338.008 C 230.063 324.004, 229.845 321.487, 228.385 319.873 C 226.437 317.720, 224.143 317.429, 223.486 319.250 M 245.571 319.571 C 243.700 321.442, 243.449 329.049, 245.200 330.800 C 245.860 331.460, 247.345 332, 248.500 332 C 251.674 332, 253 330.047, 253 325.371 C 253 321.090, 251.114 318, 248.500 318 C 247.754 318, 246.436 318.707, 245.571 319.571 M 287.791 318.988 C 279.742 321.415, 274 329.450, 274 338.287 C 274 343.532, 274.230 344.074, 277.524 346.586 C 283.761 351.343, 296.272 352.989, 302.266 349.840 C 303.238 349.330, 305.418 346.457, 307.112 343.456 C 310.431 337.575, 311.532 336.433, 312.449 337.918 C 313.432 339.508, 324.024 342.154, 326.887 341.525 C 329.383 340.977, 329.678 341.279, 331.070 345.815 C 332.270 349.726, 332.331 351.272, 331.379 353.605 C 330.438 355.913, 330.476 357.344, 331.565 360.508 C 332.823 364.162, 332.777 364.663, 331.019 366.423 C 329.795 367.649, 327.902 368.283, 325.799 368.173 C 302.479 366.950, 296.796 366.925, 295.452 368.040 C 294.467 368.857, 294 371.248, 294 375.467 C 294 380.444, 294.405 382.057, 296.024 383.521 C 298.586 385.840, 299.772 384.694, 300.183 379.500 L 300.500 375.500 306.500 374.850 C 309.800 374.493, 315.975 373.683, 320.223 373.051 C 330.536 371.515, 332.363 372.398, 331.452 378.474 C 330.892 382.203, 331.089 382.977, 332.834 383.911 C 335.704 385.447, 335.643 385.495, 337.406 380.322 C 339.509 374.151, 339.766 335.880, 337.716 334.179 C 336.834 333.447, 334.567 333.414, 330.466 334.075 C 323.015 335.275, 323.214 335.272, 319 334.233 C 316.306 333.569, 315.576 332.925, 315.831 331.435 C 317.087 324.104, 317.107 322.833, 315.989 321.486 C 314.487 319.677, 310.407 319.532, 309.346 321.249 C 308.921 321.937, 308.712 323.849, 308.882 325.499 L 309.190 328.500 306.845 326.444 C 304.400 324.300, 292.515 317.936, 291.235 318.086 C 290.831 318.133, 289.281 318.539, 287.791 318.988 M 95.607 321.582 C 94.470 324.543, 94.996 327.774, 96.999 330.139 C 98.961 332.456, 99.027 332.464, 100.499 330.559 C 101.325 329.491, 102 327.622, 102 326.405 C 102 324.453, 102.618 324.147, 107.250 323.799 C 114.215 323.275, 116.320 323.815, 115.366 325.881 C 114.955 326.772, 114.686 328.962, 114.767 330.750 C 114.848 332.538, 114.907 335.012, 114.898 336.250 C 114.873 339.836, 115.023 345.176, 115.271 349.500 L 115.500 353.500 106.257 353.150 C 98.399 352.852, 96.920 353.046, 96.383 354.443 C 95.401 357.002, 96.583 357.453, 104.463 357.524 C 112.602 357.597, 114.958 358.767, 114.266 362.389 C 114.016 363.696, 114.304 365.070, 114.906 365.442 C 115.508 365.814, 116 367.006, 116 368.090 C 116 370.558, 118.540 371.627, 120.513 369.989 C 121.755 368.959, 122 364.734, 122 344.378 L 122 320 109.107 320 C 98.273 320, 96.117 320.253, 95.607 321.582 M 286.310 326.728 C 284.805 327.760, 280 334.796, 280 335.968 C 280 337.770, 285.518 343.318, 288.585 344.600 C 291.944 346.003, 295.753 345.420, 299.818 342.881 C 301.642 341.743, 302 340.593, 302 335.874 C 302 330.835, 301.708 330.039, 299.279 328.447 C 296.306 326.499, 288.209 325.425, 286.310 326.728 M 287.200 333.200 C 283.685 336.715, 288.623 341.404, 293.500 339.182 C 297.916 337.170, 296.117 332, 291 332 C 289.570 332, 287.860 332.540, 287.200 333.200 M 49.204 335.747 L 36.908 336.062 39.022 339.031 C 41.091 341.937, 41.323 342, 49.913 342 C 57.325 342, 58.963 342.301, 60.443 343.937 C 63.216 347.002, 61.482 348, 53.384 348 L 45.887 348 47.467 350.250 C 48.448 351.647, 50.082 352.500, 51.774 352.500 C 54.163 352.500, 54.539 352.933, 54.815 356 C 55.053 358.644, 56.398 360.793, 60.315 364.788 L 65.500 370.076 66 354.288 C 66.521 337.849, 66.083 334.855, 63.215 335.216 C 62.272 335.335, 55.967 335.574, 49.204 335.747 M 129.077 343.077 C 126.840 345.314, 126 347.088, 126 349.577 C 126 351.460, 125.550 353, 125 353 C 122.454 353, 125.652 363.269, 128.545 364.379 C 129.435 364.720, 132.849 365, 136.131 365 C 145.289 365, 150.400 361.484, 147.936 356.880 C 146.535 354.262, 142.957 353, 136.935 353 C 134.221 353, 132 352.842, 132 352.649 C 132 352.456, 132.494 350.881, 133.098 349.149 C 134.403 345.406, 136.408 345.147, 142 348 C 146.791 350.444, 146.693 350.443, 147.961 348.072 C 150.289 343.724, 145.291 340, 137.127 340 C 132.907 340, 131.688 340.466, 129.077 343.077 M 318.051 344.949 C 315.731 347.269, 315.559 348.307, 317.035 351.066 C 318.222 353.283, 323.846 353.754, 325.800 351.800 C 328.340 349.260, 326.440 344.777, 322.301 343.550 C 320.785 343.100, 319.465 343.535, 318.051 344.949 M 206.750 349.080 C 205.787 349.641, 205 350.977, 205 352.050 C 205 353.658, 205.701 354, 209 354 C 212.185 354, 213 353.633, 213 352.200 C 213 350.199, 211.167 347.984, 209.550 348.030 C 208.972 348.047, 207.713 348.519, 206.750 349.080 M 272.667 353.667 C 272.300 354.033, 272 355.383, 272 356.667 C 272 358.854, 272.379 359, 278.039 359 L 284.078 359 283.789 367.750 L 283.500 376.500 277.750 376.800 C 272.396 377.079, 272 377.269, 272 379.550 C 272 381.955, 272.153 382, 280.393 382 C 287.124 382, 288.906 381.687, 289.393 380.418 C 289.727 379.548, 290 373.489, 290 366.953 C 290 356.228, 289.811 354.969, 288.066 354.035 C 285.937 352.896, 273.730 352.604, 272.667 353.667 M 294.667 357.667 C 293.625 358.709, 293.869 359.727, 295.571 361.429 C 296.859 362.716, 299.830 363, 312.036 363 C 325.957 363, 327 362.868, 328.011 360.979 C 328.606 359.868, 328.820 358.518, 328.487 357.979 C 327.811 356.885, 295.745 356.588, 294.667 357.667 M 97.709 369.624 C 96.664 370.669, 96.847 379.468, 97.975 382.435 L 98.950 385 129.419 385 C 159.770 385, 159.893 384.991, 161.443 382.777 C 163.409 379.972, 163.439 376.609, 161.513 375.011 C 159.656 373.469, 155 374.515, 155 376.474 C 155 378.181, 150.064 379.280, 144.456 378.823 C 140.979 378.539, 140.462 378.167, 140.184 375.750 C 139.920 373.463, 139.384 373, 137 373 C 134.616 373, 134.080 373.463, 133.816 375.750 C 133.539 378.160, 133.017 378.540, 129.595 378.820 C 123.935 379.283, 121.057 378.280, 119.989 375.472 C 118.534 371.644, 114 372.917, 114 377.155 C 114 378.358, 112.933 379.110, 110.605 379.546 C 105.487 380.506, 103.172 378.784, 102.807 373.745 C 102.562 370.357, 102.088 369.441, 100.459 369.208 C 99.336 369.047, 98.099 369.235, 97.709 369.624" stroke="none" fill="#a41e24" fill-rule="evenodd"/></svg>