<svg xmlns="http://www.w3.org/2000/svg" width="121" height="121" viewBox="0 0 121 121" version="1.1"><path d="M 53.386 2.651 C 49.028 3.288, 44.962 7.863, 44.288 12.888 C 43.576 18.200, 45.023 18.138, 47.526 12.750 C 50.250 6.886, 52.756 5.837, 63.044 6.252 C 72.852 6.647, 75.886 8.188, 78.739 14.224 C 81.122 19.264, 83.472 19.294, 82.657 14.273 C 81.831 9.181, 79.040 5.745, 74.496 4.224 C 70.318 2.826, 58.310 1.931, 53.386 2.651 M 42.570 20.887 C 41.889 21.988, 44.438 24.229, 45.342 23.325 C 45.704 22.963, 46 22.067, 46 21.333 C 46 19.844, 43.422 19.508, 42.570 20.887 M 80.190 22.750 C 80.376 23.712, 81.415 24.500, 82.500 24.500 C 83.585 24.500, 84.624 23.712, 84.810 22.750 C 85.062 21.439, 84.482 21, 82.500 21 C 80.518 21, 79.938 21.439, 80.190 22.750 M 21.965 24.542 C 18.474 28.749, 23.552 54.400, 29.192 61.041 C 32.420 64.842, 38.215 68.132, 44.347 69.646 L 51 71.287 50.995 76.894 C 50.992 79.977, 50.703 86.822, 50.354 92.104 L 49.718 101.707 34.729 102.283 C 26.486 102.600, 19.362 103.238, 18.898 103.702 C 18.435 104.165, 19.539 105.728, 21.353 107.175 L 24.650 109.806 59.575 110.110 C 96.193 110.428, 97.712 110.275, 99.990 106.019 C 101.782 102.670, 98.376 102, 79.566 102 C 69.905 102, 61.963 101.888, 61.918 101.750 C 61.873 101.612, 61.597 94.921, 61.305 86.879 L 60.775 72.259 66.514 71.541 C 85.653 69.150, 96.385 61.628, 101.527 47 C 103.281 42.009, 103.770 26.370, 102.220 24.820 C 100.353 22.953, 95.725 28.318, 95.089 33.087 L 94.500 37.500 86.028 38 L 77.556 38.500 76.689 43 C 76.213 45.475, 75.481 47.860, 75.063 48.299 C 73.889 49.532, 52.562 49.371, 50.208 48.112 C 49.072 47.503, 47.261 44.642, 46.185 41.753 L 44.228 36.500 36.372 35.500 L 28.516 34.500 27.848 29.800 C 27.481 27.215, 26.888 24.628, 26.531 24.050 C 25.591 22.530, 23.443 22.761, 21.965 24.542 M 58.597 25.212 C 55.159 30.458, 60.896 35.548, 65.292 31.153 C 67.031 29.413, 67.231 28.557, 66.432 26.272 C 65.118 22.513, 60.752 21.923, 58.597 25.212 M 43.166 30.139 C 43.350 31.437, 43.950 32.388, 44.500 32.250 C 45.976 31.881, 45.716 28.739, 44.166 28.222 C 43.251 27.917, 42.937 28.520, 43.166 30.139 M 79.104 29.914 C 77.662 30.828, 78.238 34, 79.846 34 C 81.316 34, 83.228 31.179, 82.527 30.044 C 81.746 28.780, 80.944 28.750, 79.104 29.914 M 29.397 45.250 C 30.687 53.647, 39.637 62.605, 47.834 63.705 L 52 64.263 51.961 58.382 C 51.925 52.864, 51.724 52.375, 48.711 50.480 C 46.945 49.369, 44.709 46.782, 43.742 44.730 L 41.984 41 35.364 41 L 28.744 41 29.397 45.250 M 80.041 44.359 C 79.468 44.932, 79 45.924, 79 46.565 C 79 47.206, 78.067 48.916, 76.927 50.365 C 75.109 52.677, 74.135 53, 68.986 53 C 65.759 53, 62.839 53.451, 62.498 54.003 C 62.157 54.554, 61.523 57.254, 61.089 60.003 L 60.299 65 66.468 65 C 79.382 65, 89.066 59.398, 91.774 50.360 C 93.782 43.658, 93.668 43.490, 87.041 43.400 C 83.763 43.355, 80.613 43.787, 80.041 44.359 M 21.098 82.149 C 18.611 89.284, 19.514 90, 31.010 90 C 36.810 90, 39.267 89.590, 40.429 88.429 C 43.939 84.918, 42.066 82.843, 33.356 80.589 C 24.139 78.205, 22.395 78.427, 21.098 82.149 M 80.142 81.906 C 74.057 82.667, 71.400 85.010, 73.074 88.138 C 73.915 89.709, 75.286 90, 81.844 90 C 90.965 90, 93.331 88.806, 92.836 84.451 C 92.539 81.840, 92.097 81.485, 89 81.368 C 87.075 81.296, 83.089 81.538, 80.142 81.906" stroke="none" fill="#f8f3f2" fill-rule="evenodd"/><path d="M 45.428 1.442 C 26.085 6.880, 11.179 20.138, 3.762 38.500 C 0.656 46.192, 0.531 47.039, 0.531 60.500 C 0.531 73.961, 0.656 74.808, 3.762 82.500 C 7.701 92.251, 16.467 104.424, 18.874 103.484 C 19.768 103.135, 27.074 102.592, 35.109 102.278 L 49.718 101.707 50.354 92.104 C 50.703 86.822, 50.992 79.977, 50.995 76.894 L 51 71.287 44.347 69.646 C 38.215 68.132, 32.420 64.842, 29.192 61.041 C 25.189 56.328, 21.255 42.165, 20.862 31.052 C 20.684 26.041, 22.082 23, 24.563 23 C 26.408 23, 27.079 24.390, 27.848 29.800 L 28.516 34.500 36.372 35.500 L 44.228 36.500 46.185 41.753 C 47.261 44.642, 49.072 47.503, 50.208 48.112 C 52.562 49.371, 73.889 49.532, 75.063 48.299 C 75.481 47.860, 76.213 45.475, 76.689 43 L 77.556 38.500 86.028 38 L 94.500 37.500 95.089 33.087 C 95.725 28.318, 100.353 22.953, 102.220 24.820 C 103.773 26.373, 103.281 42.010, 101.523 47 C 96.365 61.643, 85.656 69.150, 66.514 71.541 L 60.775 72.259 61.305 86.879 C 61.597 94.921, 61.873 101.612, 61.918 101.750 C 61.963 101.888, 69.905 102, 79.566 102 C 96.363 102, 101.859 102.802, 100.469 105.050 C 100.146 105.573, 100.317 106, 100.848 106 C 102.081 106, 108.867 97.890, 112.679 91.859 C 114.293 89.307, 116.661 83.907, 117.942 79.859 C 119.223 75.812, 120.660 71.719, 121.135 70.764 C 122.378 68.269, 122.253 48.726, 121 49.500 C 120.450 49.840, 120 49.177, 120 48.027 C 120 46.877, 118.651 42.462, 117.003 38.218 C 111.011 22.786, 98.229 10.048, 82.500 3.832 C 75.381 1.019, 73.179 0.635, 62.500 0.343 C 54.242 0.118, 48.918 0.461, 45.428 1.442 M 53.386 2.651 C 49.028 3.288, 44.962 7.863, 44.288 12.888 C 43.576 18.200, 45.023 18.138, 47.526 12.750 C 50.250 6.886, 52.756 5.837, 63.044 6.252 C 72.852 6.647, 75.886 8.188, 78.739 14.224 C 81.122 19.264, 83.472 19.294, 82.657 14.273 C 81.831 9.181, 79.040 5.745, 74.496 4.224 C 70.318 2.826, 58.310 1.931, 53.386 2.651 M 42.570 20.887 C 41.889 21.988, 44.438 24.229, 45.342 23.325 C 45.704 22.963, 46 22.067, 46 21.333 C 46 19.844, 43.422 19.508, 42.570 20.887 M 80.190 22.750 C 80.376 23.712, 81.415 24.500, 82.500 24.500 C 83.585 24.500, 84.624 23.712, 84.810 22.750 C 85.062 21.439, 84.482 21, 82.500 21 C 80.518 21, 79.938 21.439, 80.190 22.750 M 58.597 25.212 C 55.159 30.458, 60.896 35.548, 65.292 31.153 C 67.031 29.413, 67.231 28.557, 66.432 26.272 C 65.118 22.513, 60.752 21.923, 58.597 25.212 M 43.166 30.139 C 43.350 31.437, 43.950 32.388, 44.500 32.250 C 45.976 31.881, 45.716 28.739, 44.166 28.222 C 43.251 27.917, 42.937 28.520, 43.166 30.139 M 79.104 29.914 C 77.662 30.828, 78.238 34, 79.846 34 C 81.316 34, 83.228 31.179, 82.527 30.044 C 81.746 28.780, 80.944 28.750, 79.104 29.914 M 29.397 45.250 C 30.687 53.647, 39.637 62.605, 47.834 63.705 L 52 64.263 51.961 58.382 C 51.925 52.864, 51.724 52.375, 48.711 50.480 C 46.945 49.369, 44.709 46.782, 43.742 44.730 L 41.984 41 35.364 41 L 28.744 41 29.397 45.250 M 80.041 44.359 C 79.468 44.932, 79 45.924, 79 46.565 C 79 47.206, 78.067 48.916, 76.927 50.365 C 75.109 52.677, 74.135 53, 68.986 53 C 65.759 53, 62.839 53.451, 62.498 54.003 C 62.157 54.554, 61.523 57.254, 61.089 60.003 L 60.299 65 66.468 65 C 79.382 65, 89.066 59.398, 91.774 50.360 C 93.782 43.658, 93.668 43.490, 87.041 43.400 C 83.763 43.355, 80.613 43.787, 80.041 44.359 M 0.374 60.500 C 0.376 66.550, 0.541 68.896, 0.740 65.713 C 0.939 62.531, 0.937 57.581, 0.736 54.713 C 0.535 51.846, 0.372 54.450, 0.374 60.500 M 21.098 82.149 C 18.611 89.284, 19.514 90, 31.010 90 C 36.810 90, 39.267 89.590, 40.429 88.429 C 43.939 84.918, 42.066 82.843, 33.356 80.589 C 24.139 78.205, 22.395 78.427, 21.098 82.149 M 80.142 81.906 C 74.057 82.667, 71.400 85.010, 73.074 88.138 C 73.915 89.709, 75.286 90, 81.844 90 C 90.965 90, 93.331 88.806, 92.836 84.451 C 92.539 81.840, 92.097 81.485, 89 81.368 C 87.075 81.296, 83.089 81.538, 80.142 81.906 M 28 111.952 C 29.375 113.067, 34.100 115.439, 38.500 117.224 C 46.203 120.348, 47.020 120.469, 60.500 120.469 C 73.980 120.469, 74.797 120.348, 82.500 117.224 C 86.900 115.439, 91.515 113.192, 92.756 112.231 C 94.918 110.555, 93.565 110.471, 60.256 110.203 L 25.500 109.924 28 111.952" stroke="none" fill="#a41f25" fill-rule="evenodd"/></svg>